<svg width="555" height="799" viewBox="0 0 555 799" fill="none" xmlns="http://www.w3.org/2000/svg">
<rect x="40" y="69.5" width="476" height="727" rx="57" fill="#F9AEC5" stroke="#8B2F32" stroke-width="5"/>
<rect x="71" y="103.5" width="414" height="347" rx="31" fill="#E97A9A" stroke="#8B2F32" stroke-width="5"/>
<rect x="71" y="591.5" width="243" height="168" rx="31" fill="#E97A9A" stroke="#8B2F32" stroke-width="5"/>
<path d="M229 501.5C229 494.873 234.373 489.5 241 489.5H473C479.627 489.5 485 494.873 485 501.5L485 532.338C485 538.503 481.662 544.185 476.277 547.187L424.859 575.849C422.328 577.26 419.479 578 416.582 578H297.418C294.521 578 291.672 577.26 289.141 575.849L237.723 547.187C232.338 544.185 229 538.503 229 532.338L229 501.5Z" fill="#FF95B9" stroke="#8B2F32" stroke-width="5"/>
<rect x="90" y="119.5" width="376" height="313" rx="18" fill="#FEE0EC" stroke="#8B2F32" stroke-width="5"/>
<rect x="90" y="607.5" width="203" height="135" rx="18" fill="#FEE0EC" stroke="#8B2F32" stroke-width="5"/>
<path d="M335.301 526.432C342.136 526.403 348.714 526.679 355.572 526.68C364.087 526.681 372.737 526.416 381.272 526.465C389.757 526.515 398.283 526.585 406.783 526.673C412.191 526.728 417.594 526.79 423 526.858L422.464 527.001C425.167 525.485 427.872 523.97 430.579 522.455C437.993 518.308 445.429 514.16 452.858 510.024C457.903 507.214 462.956 504.404 468.004 501.598C470.219 500.367 472.429 499.139 474.643 497.908C476.296 496.99 477.948 496.072 479.6 495.154C479.83 495.026 480.057 494.915 480.232 494.847C480.406 494.779 480.515 494.758 480.533 494.79C480.552 494.823 480.479 494.907 480.331 495.024C480.184 495.141 479.974 495.283 479.749 495.418C478.113 496.397 476.478 497.376 474.842 498.355C473.026 499.442 471.212 500.528 469.396 501.614C469.031 501.648 468.577 501.776 467.809 502.16C467.417 502.356 466.859 502.666 466.467 502.925C466.114 503.158 465.862 503.357 465.623 503.545C465.372 503.742 465.134 503.929 464.808 504.135C464.255 504.485 463.749 504.852 463.218 505.237C463.025 505.378 462.828 505.52 462.624 505.666C460.89 506.703 459.156 507.74 457.422 508.776C456.738 509.152 456.11 509.5 455.586 509.809C455.116 510.087 454.699 510.365 454.288 510.649C454.019 510.81 453.751 510.97 453.482 511.13C451.75 512.166 450.016 513.201 448.282 514.236C446.897 514.988 445.447 515.78 443.579 516.838C442.774 517.294 441.972 517.732 441.201 518.152C440.063 518.773 438.992 519.357 438.077 519.911C437.466 520.281 436.804 520.638 436.144 520.994C435.258 521.472 434.375 521.949 433.616 522.455C433.139 522.773 432.707 523.075 432.306 523.355C431.669 523.799 431.112 524.188 430.583 524.498C429.59 525.08 428.751 525.62 428.012 526.096C427.122 526.669 426.376 527.15 425.679 527.499C425.573 527.551 425.452 527.611 425.315 527.678C424.856 527.901 424.222 528.211 423.418 528.653L423.215 528.768L423 528.765C422.474 528.755 421.879 528.754 421.209 528.772C420.554 528.79 419.939 528.836 419.337 528.88C418.46 528.946 417.608 529.009 416.696 528.981C416.56 528.977 416.417 528.959 416.288 528.943C416.123 528.922 415.979 528.904 415.894 528.92C415.644 528.966 415.247 529.016 414.817 529.071C414.5 529.111 414.164 529.154 413.855 529.199C411.492 529.225 409.128 529.249 406.764 529.272C405.681 529.282 404.598 529.293 403.514 529.303C402.96 529.234 402.393 529.172 401.794 529.125C401.012 529.064 399.997 529.045 398.69 529.021C397.728 529.003 396.606 528.982 395.301 528.939C392.886 528.86 390.404 528.877 388.814 528.92C388.478 528.929 388.14 528.939 387.778 528.949C386.407 528.989 384.695 529.038 381.445 529.093C378.37 529.145 375.755 529.158 373.791 529.168C372.788 529.174 371.954 529.178 371.316 529.186C370.223 529.2 368.881 529.212 367.534 529.224C365.427 529.243 363.305 529.263 362.105 529.288C361.677 529.297 361.229 529.309 360.744 529.321C359.402 529.354 357.78 529.395 355.545 529.418C353.199 529.443 351.745 529.426 350.235 529.39C349.621 529.375 349.079 529.316 348.521 529.256C347.729 529.171 346.903 529.081 345.786 529.108C345.525 529.114 345.246 529.128 344.955 529.143C344.421 529.169 343.842 529.199 343.25 529.186C343.043 529.181 342.861 529.166 342.683 529.15C342.487 529.133 342.294 529.116 342.077 529.115C341.263 529.112 340.47 529.116 339.767 529.119C338.859 529.124 338.098 529.128 337.626 529.114C336.784 529.089 335.863 529.111 334.931 529.134C334.219 529.151 333.5 529.168 332.803 529.165C330.813 529.156 328.077 529.198 325.257 529.268C324.19 529.295 323.286 529.259 322.128 529.212C321.407 529.183 320.589 529.15 319.571 529.126C318.994 529.112 318.505 529.144 318.052 529.174C317.636 529.202 317.249 529.227 316.853 529.213C316.503 529.2 316.281 529.146 316.071 529.094C315.837 529.037 315.617 528.983 315.249 528.993C315.053 528.999 314.815 529.026 314.532 529.058C314.42 529.071 314.3 529.085 314.173 529.098C314.18 529.087 314.181 529.077 314.181 529.07C314.182 529.017 313.806 528.989 313.438 528.962C313.29 528.951 313.144 528.94 313.023 528.928C312.58 528.883 311.741 528.876 311.1 528.878C310.829 528.879 310.583 528.862 310.296 528.843C310.042 528.826 309.755 528.807 309.389 528.796C309.18 528.79 309.02 528.775 308.887 528.762C308.791 528.753 308.709 528.745 308.634 528.743C308.568 528.741 308.515 528.756 308.456 528.773C308.413 528.785 308.366 528.798 308.309 528.807C308.172 528.828 307.997 528.834 307.873 528.827C307.817 528.824 307.772 528.818 307.727 528.813C307.675 528.806 307.623 528.799 307.552 528.796C307.225 528.785 306.907 528.803 306.576 528.821C306.213 528.84 305.834 528.861 305.412 528.845C305.279 528.841 305.138 528.83 305.001 528.819C304.858 528.808 304.718 528.797 304.6 528.794C304.119 528.782 303.667 528.82 303.252 528.855C302.975 528.878 302.714 528.9 302.472 528.905C302.028 528.914 301.79 528.959 301.614 528.992C301.523 529.01 301.449 529.024 301.371 529.028C301.3 529.027 301.227 529.025 301.156 529.024C301.091 529.02 301.024 529.017 300.961 529.018C300.956 529.018 300.952 529.018 300.947 529.018C300.55 529.007 300.16 528.992 299.772 528.976C298.902 528.941 298.043 528.907 297.134 528.926C296.938 528.931 296.739 528.949 296.536 528.968C296.287 528.992 296.033 529.015 295.773 529.014C295.156 529.01 294.532 528.979 293.918 528.948C293.437 528.925 292.962 528.901 292.5 528.891L292.232 528.888L292.019 528.762C291.656 528.541 291.296 528.336 290.94 528.157C290.694 528.034 290.449 527.924 290.204 527.814C290.067 527.752 289.929 527.69 289.792 527.626C289.832 527.621 289.858 527.609 289.883 527.598C289.934 527.576 289.977 527.557 290.119 527.602C290.455 527.707 290.845 527.81 290.847 527.722C290.847 527.698 290.867 527.683 290.887 527.668C290.939 527.63 290.992 527.591 290.73 527.408C290.552 527.284 290.095 526.972 289.768 526.835C289.697 526.805 289.647 526.799 289.591 526.791C289.491 526.778 289.372 526.763 289.078 526.605C289.028 526.579 288.975 526.55 288.919 526.52C288.699 526.399 288.452 526.264 288.345 526.239C288.222 526.209 288.224 526.258 288.226 526.314C288.229 526.388 288.232 526.476 287.961 526.423C287.908 526.412 287.819 526.368 287.752 526.335C287.705 526.311 287.669 526.293 287.663 526.296C287.656 526.299 287.664 526.318 287.675 526.343C287.712 526.43 287.775 526.581 287.3 526.312C287.172 526.239 287.028 526.15 286.899 526.071C286.709 525.954 286.551 525.857 286.521 525.858C286.51 525.859 286.501 525.861 286.493 525.865C286.34 525.774 286.187 525.683 286.034 525.593C285.846 525.462 285.568 525.304 285.221 525.106C285.137 525.058 285.048 525.007 284.956 524.954C284.655 524.775 284.353 524.597 284.051 524.418C283.814 524.272 283.565 524.112 283.305 523.938C282.784 523.588 282.348 523.255 281.921 522.929C281.741 522.792 281.563 522.656 281.381 522.521C281.459 522.562 281.529 522.599 281.585 522.625C281.964 522.802 282.144 522.825 282.31 522.846C282.42 522.86 282.525 522.873 282.676 522.93C282.954 523.035 282.957 522.972 282.959 522.925C282.96 522.901 282.962 522.881 283.001 522.891C283.032 522.9 283.097 522.933 283.164 522.967C283.222 522.996 283.283 523.027 283.323 523.043C283.818 523.233 283.706 523.113 283.542 522.938C283.452 522.842 283.346 522.729 283.318 522.642C283.3 522.557 283.327 522.551 283.577 522.666C283.408 522.531 283.239 522.396 283.069 522.262C282.995 522.222 282.93 522.207 282.836 522.191C282.668 522.162 282.207 521.921 281.846 521.732C281.679 521.645 281.534 521.569 281.449 521.531C280.999 521.326 281.089 521.456 281.169 521.57C281.213 521.633 281.253 521.691 281.198 521.687C281.175 521.685 281.196 521.708 281.218 521.732C281.234 521.751 281.251 521.77 281.248 521.777C281.224 521.831 280.95 521.724 280.696 521.624C280.551 521.567 280.412 521.512 280.329 521.492C280.304 521.486 280.283 521.482 280.264 521.479C280.235 521.475 280.208 521.47 280.168 521.457C280.077 521.426 279.902 521.341 279.712 521.247C279.614 521.199 279.512 521.149 279.414 521.103C279.288 521.043 279.233 521.038 279.175 521.033C279.134 521.029 279.091 521.025 279.021 521.002C278.895 520.959 278.663 520.836 278.447 520.721C278.352 520.672 278.261 520.623 278.184 520.584C278.152 520.568 278.136 520.563 278.13 520.566C277.773 520.382 277.432 520.206 277.1 520.036C275.435 519.182 273.994 518.442 271.93 517.184C271.54 516.946 271.114 516.703 270.681 516.462C269.319 515.649 267.957 514.836 266.597 514.022C266.351 513.819 266.041 513.588 265.665 513.331C264.959 512.847 264.206 512.396 263.317 511.864C262.66 511.471 261.929 511.033 261.087 510.504C259.673 509.616 258.216 508.714 256.556 507.724C254.902 506.738 253.004 505.619 251.657 504.833C250.923 504.405 250.174 503.917 249.476 503.463C248.493 502.824 247.612 502.251 247.016 502C246.826 501.92 246.632 501.86 246.443 501.802C246.309 501.76 246.177 501.718 246.051 501.672C245.749 501.489 245.446 501.307 245.144 501.124C244.627 500.764 243.812 500.226 242.966 499.807C242.654 499.618 242.342 499.43 242.041 499.247C241.384 498.85 240.741 498.46 240.092 498.067C239.881 497.939 239.667 497.809 239.453 497.68C239.451 497.678 239.449 497.677 239.447 497.676C239.015 497.414 238.581 497.151 238.153 496.892C237.97 496.781 237.787 496.67 237.604 496.559C237.139 496.277 236.67 495.992 236.21 495.713C235.966 495.565 235.72 495.416 235.474 495.266C235.074 495.023 234.671 494.779 234.271 494.535C233.623 494.142 232.978 493.75 232.332 493.357C232.227 493.292 232.128 493.225 232.059 493.17C231.991 493.114 231.957 493.075 231.965 493.06C231.974 493.045 232.026 493.055 232.109 493.087C232.191 493.119 232.298 493.171 232.407 493.23C233.07 493.594 233.732 493.957 234.398 494.322C234.809 494.547 235.222 494.774 235.632 494.999C235.884 495.138 236.136 495.276 236.386 495.414C236.859 495.673 237.34 495.937 237.816 496.199C238.004 496.302 238.192 496.405 238.379 496.509C238.818 496.75 239.265 496.996 239.708 497.239C239.711 497.241 239.713 497.242 239.716 497.244C239.934 497.364 240.152 497.483 240.367 497.602C241.032 497.968 241.69 498.33 242.363 498.701C242.711 498.893 243.073 499.092 243.433 499.291C243.633 499.401 243.833 499.511 244.029 499.619C244.136 499.679 244.245 499.739 244.354 499.799C246.863 501.182 249.353 502.558 251.865 503.948C254.368 505.333 256.874 506.723 259.372 508.109C261.875 509.5 264.373 510.889 266.873 512.282C275.599 517.143 284.336 522.028 293.073 526.937L292.5 526.784C300.694 526.688 308.896 526.607 317.1 526.542C319.701 526.522 322.37 526.503 324.976 526.487C327.611 526.47 330.191 526.456 332.833 526.443C333.635 526.439 334.458 526.435 335.301 526.432Z" fill="white"/>
<path d="M291.502 556.606C291.473 555.582 291.75 554.595 291.75 553.567C291.751 552.29 291.486 550.993 291.536 549.713C291.585 548.441 291.656 547.162 291.743 545.888C291.83 544.612 291.934 543.338 292.049 542.061C292.164 540.788 292.29 539.511 292.422 538.236C292.512 537.37 292.604 536.503 292.698 535.638C292.739 535.258 292.781 534.879 292.822 534.499C292.853 534.215 292.884 533.932 292.915 533.648C292.919 533.609 292.937 533.571 292.965 533.543C292.994 533.516 293.03 533.5 293.067 533.5C293.104 533.5 293.14 533.516 293.169 533.544C293.197 533.572 293.214 533.61 293.218 533.649C293.248 533.935 293.278 534.221 293.308 534.506C293.342 534.824 293.375 535.141 293.408 535.458C293.255 535.508 293.139 535.577 293.088 535.705C293.061 535.771 293.051 535.866 293.079 535.937C293.105 536 293.15 536.048 293.194 536.093C293.239 536.14 293.282 536.185 293.297 536.243C293.323 536.341 293.388 536.434 293.457 536.532C293.481 536.568 293.507 536.604 293.531 536.641C293.562 536.944 293.593 537.247 293.624 537.55C293.607 537.667 293.594 537.775 293.6 537.866C293.606 537.948 293.638 538.023 293.679 538.097C293.683 538.144 293.688 538.191 293.693 538.238C293.723 538.541 293.752 538.843 293.782 539.146C293.741 539.382 293.701 539.63 293.684 539.952C293.676 540.091 293.654 540.228 293.633 540.359C293.602 540.554 293.572 540.736 293.594 540.897C293.609 541.004 293.587 541.117 293.566 541.229C293.537 541.38 293.508 541.53 293.567 541.667C293.604 541.753 293.649 541.832 293.691 541.905C293.757 542.021 293.815 542.122 293.819 542.214C293.827 542.387 293.875 542.536 293.918 542.668C293.97 542.826 294.013 542.959 293.966 543.076C293.959 543.093 293.95 543.114 293.939 543.136C293.883 543.257 293.793 543.449 293.843 543.725C293.86 543.823 293.906 543.915 293.951 544.005C294.016 544.137 294.079 544.265 294.051 544.401C294.047 544.422 294.029 544.443 294.013 544.462C293.993 544.487 293.975 544.509 293.99 544.522C294.036 544.559 294.086 544.619 294.141 544.683C294.182 544.731 294.225 544.781 294.269 544.827C294.295 545.182 294.319 545.536 294.342 545.891C294.353 546.053 294.363 546.215 294.373 546.378C294.304 546.461 294.242 546.546 294.195 546.636C294.134 546.753 294.115 546.905 294.091 547.101C294.073 547.246 294.052 547.414 294.009 547.609C293.93 547.972 293.948 548.344 293.99 548.582C293.999 548.633 294.009 548.683 294.019 548.738C294.059 548.943 294.109 549.2 294.163 549.687C294.215 550.148 294.229 550.54 294.239 550.835C294.244 550.985 294.248 551.11 294.256 551.206C294.27 551.37 294.282 551.571 294.294 551.773C294.314 552.089 294.333 552.407 294.359 552.587C294.368 552.651 294.379 552.719 294.391 552.791C294.425 552.993 294.465 553.236 294.488 553.571C294.513 553.923 294.496 554.141 294.46 554.367C294.445 554.459 294.387 554.541 294.326 554.624C294.241 554.743 294.152 554.867 294.178 555.034C294.184 555.073 294.198 555.115 294.213 555.159C294.24 555.239 294.269 555.326 294.256 555.415C294.252 555.446 294.236 555.473 294.22 555.5C294.203 555.529 294.186 555.558 294.186 555.591C294.182 555.713 294.186 555.831 294.19 555.937C294.194 556.073 294.198 556.187 294.184 556.258C294.159 556.384 294.182 556.522 294.204 556.662C294.221 556.769 294.239 556.877 294.235 556.981C294.226 557.279 294.268 557.69 294.339 558.113C294.365 558.273 294.329 558.408 294.282 558.582C294.253 558.69 294.22 558.813 294.196 558.965C294.182 559.052 294.215 559.125 294.244 559.193C294.272 559.255 294.297 559.313 294.283 559.373C294.27 559.425 294.216 559.459 294.164 559.49C294.107 559.525 294.053 559.558 294.063 559.613C294.069 559.643 294.096 559.678 294.129 559.721C294.141 559.738 294.155 559.756 294.168 559.775C294.157 559.774 294.147 559.773 294.14 559.773C294.087 559.773 294.059 559.83 294.032 559.885C294.021 559.907 294.011 559.929 293.998 559.947C293.953 560.013 293.946 560.139 293.948 560.235C293.949 560.276 293.933 560.313 293.914 560.356C293.897 560.394 293.878 560.437 293.866 560.492C293.86 560.523 293.845 560.547 293.832 560.567C293.823 560.582 293.815 560.594 293.813 560.605C293.811 560.615 293.826 560.623 293.843 560.632C293.855 560.638 293.869 560.645 293.877 560.654C293.898 560.674 293.904 560.701 293.898 560.719C293.895 560.728 293.889 560.735 293.883 560.741C293.876 560.749 293.869 560.757 293.867 560.768C293.856 560.817 293.873 560.864 293.891 560.914C293.911 560.968 293.931 561.025 293.916 561.088C293.911 561.108 293.9 561.13 293.889 561.15C293.878 561.172 293.867 561.192 293.864 561.21C293.853 561.282 293.89 561.35 293.925 561.412C293.948 561.454 293.97 561.493 293.975 561.529C293.984 561.596 294.029 561.632 294.063 561.658C294.08 561.672 294.094 561.683 294.098 561.694C294.097 561.705 294.096 561.716 294.094 561.727C294.091 561.736 294.087 561.746 294.088 561.756C294.088 561.757 294.089 561.757 294.089 561.758C294.078 561.817 294.062 561.876 294.047 561.934C294.012 562.065 293.977 562.193 293.997 562.33C294.001 562.359 294.02 562.389 294.039 562.419C294.062 562.457 294.086 562.495 294.084 562.534C294.08 562.626 294.049 562.72 294.019 562.812C293.973 562.95 293.928 563.086 293.977 563.21C293.994 563.251 294.02 563.291 294.048 563.331C294.063 563.354 294.078 563.376 294.091 563.399C294.067 563.394 294.043 563.392 294.022 563.389C293.977 563.384 293.939 563.38 293.906 563.358C293.83 563.307 293.724 563.248 293.647 563.255C293.626 563.257 293.603 563.255 293.579 563.254C293.52 563.25 293.46 563.246 293.433 563.294C293.415 563.326 293.373 563.409 293.418 563.461C293.428 563.473 293.447 563.48 293.469 563.488C293.507 563.502 293.553 563.518 293.564 563.568C293.566 563.577 293.568 563.586 293.569 563.595C293.575 563.633 293.582 563.675 293.613 563.691C293.649 563.709 293.69 563.705 293.738 563.701C293.8 563.695 293.875 563.688 293.964 563.727C293.982 563.735 293.988 563.749 293.992 563.761C293.996 563.769 293.998 563.775 294.004 563.775C294.01 563.776 294.022 563.773 294.038 563.77C294.095 563.759 294.194 563.739 294.199 563.821C294.2 563.843 294.195 563.869 294.191 563.891C294.184 563.925 294.179 563.953 294.195 563.956C294.202 563.958 294.208 563.959 294.215 563.959C294.213 563.986 294.211 564.013 294.209 564.039C294.19 564.074 294.192 564.122 294.194 564.181C294.194 564.196 294.195 564.211 294.195 564.227C294.191 564.28 294.187 564.332 294.183 564.385C294.175 564.427 294.161 564.471 294.14 564.518C294.098 564.612 294.028 564.693 293.959 564.773C293.93 564.807 293.902 564.84 293.875 564.874C293.872 564.861 293.868 564.849 293.863 564.84C293.827 564.777 293.757 564.752 293.692 564.729C293.649 564.714 293.608 564.699 293.582 564.675C293.534 564.631 293.478 564.636 293.436 564.639C293.415 564.64 293.397 564.642 293.386 564.636C293.378 564.631 293.374 564.62 293.37 564.609C293.366 564.599 293.363 564.589 293.356 564.583C293.274 564.504 293.226 564.528 293.156 564.562C293.118 564.581 293.073 564.603 293.012 564.613C292.947 564.622 292.928 564.619 292.903 564.578C292.871 564.61 292.839 564.642 292.807 564.674C292.809 564.687 292.829 564.696 292.862 564.71C292.921 564.734 292.943 564.812 292.96 564.873C292.968 564.901 292.975 564.926 292.984 564.939C293.032 565.013 293.099 564.992 293.158 564.973C293.191 564.962 293.221 564.953 293.244 564.96C293.254 564.963 293.264 564.959 293.274 564.954C293.282 564.951 293.29 564.947 293.298 564.947C293.357 564.946 293.4 564.99 293.441 565.03C293.464 565.053 293.487 565.075 293.51 565.088C293.517 565.091 293.525 565.094 293.532 565.097C293.542 565.101 293.552 565.105 293.56 565.111C293.58 565.125 293.593 565.154 293.607 565.186C293.614 565.203 293.622 565.22 293.631 565.236C293.642 565.257 293.666 565.264 293.69 565.272C293.707 565.278 293.725 565.284 293.739 565.294C293.766 565.314 293.775 565.353 293.784 565.39C293.788 565.406 293.792 565.421 293.797 565.434C293.799 565.44 293.803 565.442 293.808 565.443C293.827 565.503 293.846 565.56 293.864 565.616C293.957 565.897 294.037 566.139 293.979 566.501C293.968 566.57 293.97 566.643 293.979 566.718C293.956 566.956 293.932 567.193 293.907 567.431C293.854 567.478 293.809 567.536 293.774 567.604C293.709 567.732 293.695 567.863 293.678 568.019C293.666 568.134 293.652 568.261 293.615 568.41C293.553 568.66 293.501 568.917 293.473 569.207C293.446 569.496 293.426 569.826 293.419 570.06C293.415 570.188 293.368 570.321 293.324 570.446C293.261 570.622 293.206 570.779 293.286 570.875C293.312 570.906 293.357 570.936 293.401 570.964C293.432 570.985 293.462 571.005 293.485 571.025C293.478 571.078 293.471 571.131 293.464 571.184C293.41 571.278 293.352 571.424 293.412 571.566C293.405 571.62 293.397 571.675 293.39 571.728C293.374 571.843 293.358 571.956 293.342 572.069C293.337 572.106 293.332 572.144 293.326 572.181C293.326 572.182 293.326 572.182 293.326 572.182C293.315 572.258 293.305 572.334 293.294 572.409C293.289 572.441 293.285 572.473 293.28 572.505C293.268 572.587 293.256 572.669 293.244 572.75C293.238 572.793 293.232 572.836 293.225 572.879C293.215 572.949 293.205 573.02 293.194 573.09C293.177 573.204 293.16 573.317 293.143 573.43C293.14 573.449 293.131 573.466 293.117 573.48C293.104 573.493 293.087 573.5 293.069 573.5C293.052 573.5 293.034 573.493 293.021 573.479C293.007 573.466 292.999 573.448 292.996 573.43C292.979 573.317 292.962 573.203 292.946 573.09C292.936 573.019 292.925 572.949 292.915 572.879C292.909 572.835 292.903 572.792 292.897 572.749C292.885 572.669 292.874 572.586 292.862 572.505C292.858 572.473 292.853 572.441 292.849 572.409C292.838 572.333 292.828 572.257 292.817 572.181C292.817 572.181 292.817 572.18 292.817 572.18C292.812 572.143 292.807 572.105 292.802 572.068C292.786 571.955 292.771 571.842 292.756 571.727C292.748 571.667 292.74 571.605 292.732 571.544C292.727 571.509 292.723 571.475 292.718 571.442C292.716 571.423 292.713 571.405 292.711 571.386C292.655 570.956 292.601 570.53 292.549 570.099C292.497 569.671 292.447 569.241 292.399 568.813C292.352 568.383 292.306 567.955 292.262 567.526C291.984 564.803 291.756 562.07 291.613 559.336C291.592 558.946 291.574 558.546 291.557 558.155C291.541 557.76 291.526 557.373 291.513 556.977C291.509 556.856 291.506 556.733 291.502 556.606Z" fill="white"/>
<path d="M422.502 556.606C422.473 555.582 422.75 554.595 422.75 553.567C422.751 552.29 422.486 550.993 422.536 549.713C422.585 548.441 422.656 547.162 422.743 545.888C422.83 544.612 422.934 543.338 423.049 542.061C423.164 540.788 423.29 539.511 423.422 538.236C423.512 537.37 423.604 536.503 423.698 535.638C423.739 535.258 423.781 534.879 423.822 534.499C423.853 534.215 423.884 533.932 423.915 533.648C423.919 533.609 423.937 533.571 423.965 533.543C423.994 533.516 424.03 533.5 424.067 533.5C424.104 533.5 424.14 533.516 424.169 533.544C424.197 533.572 424.214 533.61 424.218 533.649C424.248 533.935 424.278 534.221 424.308 534.506C424.342 534.824 424.375 535.141 424.408 535.458C424.255 535.508 424.139 535.577 424.088 535.705C424.061 535.771 424.051 535.866 424.079 535.937C424.105 536 424.15 536.048 424.194 536.093C424.239 536.14 424.282 536.185 424.297 536.243C424.323 536.341 424.388 536.434 424.457 536.532C424.481 536.568 424.507 536.604 424.531 536.641C424.562 536.944 424.593 537.247 424.624 537.55C424.607 537.667 424.594 537.775 424.6 537.866C424.606 537.948 424.638 538.023 424.679 538.097C424.683 538.144 424.688 538.191 424.693 538.238C424.723 538.541 424.752 538.843 424.782 539.146C424.741 539.382 424.701 539.63 424.684 539.952C424.676 540.091 424.654 540.228 424.633 540.359C424.602 540.554 424.572 540.736 424.594 540.897C424.609 541.004 424.587 541.117 424.566 541.229C424.537 541.38 424.508 541.53 424.567 541.667C424.604 541.753 424.649 541.832 424.691 541.905C424.757 542.021 424.815 542.122 424.819 542.214C424.827 542.387 424.875 542.536 424.918 542.668C424.97 542.826 425.013 542.959 424.966 543.076C424.959 543.093 424.95 543.114 424.939 543.136C424.883 543.257 424.793 543.449 424.843 543.725C424.86 543.823 424.906 543.915 424.951 544.005C425.016 544.137 425.079 544.265 425.051 544.401C425.047 544.422 425.029 544.443 425.013 544.462C424.993 544.487 424.975 544.509 424.99 544.522C425.036 544.559 425.086 544.619 425.141 544.683C425.182 544.731 425.225 544.781 425.269 544.827C425.295 545.182 425.319 545.536 425.342 545.891C425.353 546.053 425.363 546.215 425.373 546.378C425.304 546.461 425.242 546.546 425.195 546.636C425.134 546.753 425.115 546.905 425.091 547.101C425.073 547.246 425.052 547.414 425.009 547.609C424.93 547.972 424.948 548.344 424.99 548.582C424.999 548.633 425.009 548.683 425.019 548.738C425.059 548.943 425.109 549.2 425.163 549.687C425.215 550.148 425.229 550.54 425.239 550.835C425.244 550.985 425.248 551.11 425.256 551.206C425.27 551.37 425.282 551.571 425.294 551.773C425.314 552.089 425.333 552.407 425.359 552.587C425.368 552.651 425.379 552.719 425.391 552.791C425.425 552.993 425.465 553.236 425.488 553.571C425.513 553.923 425.496 554.141 425.46 554.367C425.445 554.459 425.387 554.541 425.326 554.624C425.241 554.743 425.152 554.867 425.178 555.034C425.184 555.073 425.198 555.115 425.213 555.159C425.24 555.239 425.269 555.326 425.256 555.415C425.252 555.446 425.236 555.473 425.22 555.5C425.203 555.529 425.186 555.558 425.186 555.591C425.182 555.713 425.186 555.831 425.19 555.937C425.194 556.073 425.198 556.187 425.184 556.258C425.159 556.384 425.182 556.522 425.204 556.662C425.221 556.769 425.239 556.877 425.235 556.981C425.226 557.279 425.268 557.69 425.339 558.113C425.365 558.273 425.329 558.408 425.282 558.582C425.253 558.69 425.22 558.813 425.196 558.965C425.182 559.052 425.215 559.125 425.244 559.193C425.272 559.255 425.297 559.313 425.283 559.373C425.27 559.425 425.216 559.459 425.164 559.49C425.107 559.525 425.053 559.558 425.063 559.613C425.069 559.643 425.096 559.678 425.129 559.721C425.141 559.738 425.155 559.756 425.168 559.775C425.157 559.774 425.147 559.773 425.14 559.773C425.087 559.773 425.059 559.83 425.032 559.885C425.021 559.907 425.011 559.929 424.998 559.947C424.953 560.013 424.946 560.139 424.948 560.235C424.949 560.276 424.933 560.313 424.914 560.356C424.897 560.394 424.878 560.437 424.866 560.492C424.86 560.523 424.845 560.547 424.832 560.567C424.823 560.582 424.815 560.594 424.813 560.605C424.811 560.615 424.826 560.623 424.843 560.632C424.855 560.638 424.869 560.645 424.877 560.654C424.898 560.674 424.904 560.701 424.898 560.719C424.895 560.728 424.889 560.735 424.883 560.741C424.876 560.749 424.869 560.757 424.867 560.768C424.856 560.817 424.873 560.864 424.891 560.914C424.911 560.968 424.931 561.025 424.916 561.088C424.911 561.108 424.9 561.13 424.889 561.15C424.878 561.172 424.867 561.192 424.864 561.21C424.853 561.282 424.89 561.35 424.925 561.412C424.948 561.454 424.97 561.493 424.975 561.529C424.984 561.596 425.029 561.632 425.063 561.658C425.08 561.672 425.094 561.683 425.098 561.694C425.097 561.705 425.096 561.716 425.094 561.727C425.091 561.736 425.087 561.746 425.088 561.756C425.088 561.757 425.089 561.757 425.089 561.758C425.078 561.817 425.062 561.876 425.047 561.934C425.012 562.065 424.977 562.193 424.997 562.33C425.001 562.359 425.02 562.389 425.039 562.419C425.062 562.457 425.086 562.495 425.084 562.534C425.08 562.626 425.049 562.72 425.019 562.812C424.973 562.95 424.928 563.086 424.977 563.21C424.994 563.251 425.02 563.291 425.048 563.331C425.063 563.354 425.078 563.376 425.091 563.399C425.067 563.394 425.043 563.392 425.022 563.389C424.977 563.384 424.939 563.38 424.906 563.358C424.83 563.307 424.724 563.248 424.647 563.255C424.626 563.257 424.603 563.255 424.579 563.254C424.52 563.25 424.46 563.246 424.433 563.294C424.415 563.326 424.373 563.409 424.418 563.461C424.428 563.473 424.447 563.48 424.469 563.488C424.507 563.502 424.553 563.518 424.564 563.568C424.566 563.577 424.568 563.586 424.569 563.595C424.575 563.633 424.582 563.675 424.613 563.691C424.649 563.709 424.69 563.705 424.738 563.701C424.8 563.695 424.875 563.688 424.964 563.727C424.982 563.735 424.988 563.749 424.992 563.761C424.996 563.769 424.998 563.775 425.004 563.775C425.01 563.776 425.022 563.773 425.038 563.77C425.095 563.759 425.194 563.739 425.199 563.821C425.2 563.843 425.195 563.869 425.191 563.891C425.184 563.925 425.179 563.953 425.195 563.956C425.202 563.958 425.208 563.959 425.215 563.959C425.213 563.986 425.211 564.013 425.209 564.039C425.19 564.074 425.192 564.122 425.194 564.181C425.194 564.196 425.195 564.211 425.195 564.227C425.191 564.28 425.187 564.332 425.183 564.385C425.175 564.427 425.161 564.471 425.14 564.518C425.098 564.612 425.028 564.693 424.959 564.773C424.93 564.807 424.902 564.84 424.875 564.874C424.872 564.861 424.868 564.849 424.863 564.84C424.827 564.777 424.757 564.752 424.692 564.729C424.649 564.714 424.608 564.699 424.582 564.675C424.534 564.631 424.478 564.636 424.436 564.639C424.415 564.64 424.397 564.642 424.386 564.636C424.378 564.631 424.374 564.62 424.37 564.609C424.366 564.599 424.363 564.589 424.356 564.583C424.274 564.504 424.226 564.528 424.156 564.562C424.118 564.581 424.073 564.603 424.012 564.613C423.947 564.622 423.928 564.619 423.903 564.578C423.871 564.61 423.839 564.642 423.807 564.674C423.809 564.687 423.829 564.696 423.862 564.71C423.921 564.734 423.943 564.812 423.96 564.873C423.968 564.901 423.975 564.926 423.984 564.939C424.032 565.013 424.099 564.992 424.158 564.973C424.191 564.962 424.221 564.953 424.244 564.96C424.254 564.963 424.264 564.959 424.274 564.954C424.282 564.951 424.29 564.947 424.298 564.947C424.357 564.946 424.4 564.99 424.441 565.03C424.464 565.053 424.487 565.075 424.51 565.088C424.517 565.091 424.525 565.094 424.532 565.097C424.542 565.101 424.552 565.105 424.56 565.111C424.58 565.125 424.593 565.154 424.607 565.186C424.614 565.203 424.622 565.22 424.631 565.236C424.642 565.257 424.666 565.264 424.69 565.272C424.707 565.278 424.725 565.284 424.739 565.294C424.766 565.314 424.775 565.353 424.784 565.39C424.788 565.406 424.792 565.421 424.797 565.434C424.799 565.44 424.803 565.442 424.808 565.443C424.827 565.503 424.846 565.56 424.864 565.616C424.957 565.897 425.037 566.139 424.979 566.501C424.968 566.57 424.97 566.643 424.979 566.718C424.956 566.956 424.932 567.193 424.907 567.431C424.854 567.478 424.809 567.536 424.774 567.604C424.709 567.732 424.695 567.863 424.678 568.019C424.666 568.134 424.652 568.261 424.615 568.41C424.553 568.66 424.501 568.917 424.473 569.207C424.446 569.496 424.426 569.826 424.419 570.06C424.415 570.188 424.368 570.321 424.324 570.446C424.261 570.622 424.206 570.779 424.286 570.875C424.312 570.906 424.357 570.936 424.401 570.964C424.432 570.985 424.462 571.005 424.485 571.025C424.478 571.078 424.471 571.131 424.464 571.184C424.41 571.278 424.352 571.424 424.412 571.566C424.405 571.62 424.397 571.675 424.39 571.728C424.374 571.843 424.358 571.956 424.342 572.069C424.337 572.106 424.332 572.144 424.326 572.181C424.326 572.182 424.326 572.182 424.326 572.182C424.315 572.258 424.305 572.334 424.294 572.409C424.289 572.441 424.285 572.473 424.28 572.505C424.268 572.587 424.256 572.669 424.244 572.75C424.238 572.793 424.232 572.836 424.225 572.879C424.215 572.949 424.205 573.02 424.194 573.09C424.177 573.204 424.16 573.317 424.143 573.43C424.14 573.449 424.131 573.466 424.117 573.48C424.104 573.493 424.087 573.5 424.069 573.5C424.052 573.5 424.034 573.493 424.021 573.479C424.007 573.466 423.999 573.448 423.996 573.43C423.979 573.317 423.962 573.203 423.946 573.09C423.936 573.019 423.925 572.949 423.915 572.879C423.909 572.835 423.903 572.792 423.897 572.749C423.885 572.669 423.874 572.586 423.862 572.505C423.858 572.473 423.853 572.441 423.849 572.409C423.838 572.333 423.828 572.257 423.817 572.181C423.817 572.181 423.817 572.18 423.817 572.18C423.812 572.143 423.807 572.105 423.802 572.068C423.786 571.955 423.771 571.842 423.756 571.727C423.748 571.667 423.74 571.605 423.732 571.544C423.727 571.509 423.723 571.475 423.718 571.442C423.716 571.423 423.713 571.405 423.711 571.386C423.655 570.956 423.601 570.53 423.549 570.099C423.497 569.671 423.447 569.241 423.399 568.813C423.352 568.383 423.306 567.955 423.262 567.526C422.984 564.803 422.756 562.07 422.613 559.336C422.592 558.946 422.574 558.546 422.557 558.155C422.541 557.76 422.526 557.373 422.513 556.977C422.509 556.856 422.506 556.733 422.502 556.606Z" fill="white"/>
<rect x="293" y="474.5" width="16" height="38" rx="8" fill="#E2E9F6" stroke="#8B2F32" stroke-width="5"/>
<circle cx="301" cy="475.5" r="20.5" fill="#E14753" stroke="#8B2F32" stroke-width="5"/>
<path d="M419.589 485.025C422.811 485.224 425.655 486.551 427.964 488.321C430.268 490.088 432.119 492.355 433.401 494.61C434.658 496.819 435.5 499.251 435.5 501.378C435.5 505.892 431.942 509.321 427.685 511.474C423.286 513.697 417.383 515 411 515C404.617 515 398.714 513.697 394.315 511.474C390.058 509.321 386.5 505.892 386.5 501.378C386.5 499.305 387.227 496.973 388.399 494.827C389.589 492.651 391.333 490.488 393.573 488.793C397.899 485.519 403.943 484.11 410.837 487.364C413.787 485.563 416.749 484.85 419.589 485.025Z" fill="#E14753" stroke="#8B2F32" stroke-width="5"/>
<path d="M411 480C415.446 480 419.595 480.896 422.725 482.461C425.705 483.951 428.5 486.472 428.5 490C428.5 493.528 425.705 496.049 422.725 497.539C419.595 499.104 415.446 500 411 500C406.554 500 402.405 499.104 399.275 497.539C396.295 496.049 393.5 493.528 393.5 490C393.5 486.472 396.295 483.951 399.275 482.461C402.405 480.896 406.554 480 411 480Z" fill="#F4757F" stroke="#8B2F32" stroke-width="5"/>
<ellipse cx="13" cy="12.5" rx="13" ry="12.5" transform="matrix(1 0 0 -1 497 174.5)" fill="#97AAFF" stroke="#8B2F32" stroke-width="5"/>
<circle cx="21.5" cy="21.5" r="21.5" transform="matrix(1 0 0 -1 506 174.5)" fill="#FCF49A" stroke="#8B2F32" stroke-width="5"/>
<circle cx="9" cy="9" r="9" transform="matrix(-1 0 0 1 542.088 140.5)" fill="#FEFCF4"/>
<ellipse cx="13" cy="12.5" rx="13" ry="12.5" transform="matrix(0.979944 0.199275 0.199275 -0.979944 493.237 260.887)" fill="#97AAFF" stroke="#8B2F32" stroke-width="5"/>
<circle cx="21.5" cy="21.5" r="21.5" transform="matrix(0.979944 0.199275 0.199275 -0.979944 502.057 262.681)" fill="#FCF49A" stroke="#8B2F32" stroke-width="5"/>
<circle cx="9" cy="9" r="9" transform="matrix(-1 0 0 1 542.088 236.5)" fill="#FEFCF4"/>
<ellipse cx="507.96" cy="332.122" rx="13" ry="12.5" transform="rotate(-16.7275 507.96 332.122)" fill="#97AAFF" stroke="#8B2F32" stroke-width="5"/>
<circle cx="527.31" cy="335.705" r="21.5" transform="rotate(-16.7275 527.31 335.705)" fill="#FCF49A" stroke="#8B2F32" stroke-width="5"/>
<circle cx="9" cy="9" r="9" transform="matrix(-1 0 0 1 542.088 323.5)" fill="#FEFCF4"/>
<ellipse cx="509" cy="420" rx="13" ry="12.5" fill="#97AAFF" stroke="#8B2F32" stroke-width="5"/>
<circle cx="526.5" cy="429" r="21.5" fill="#FCF49A" stroke="#8B2F32" stroke-width="5"/>
<circle cx="9" cy="9" r="9" transform="matrix(-1 0 0 1 542.088 415.5)" fill="#FEFCF4"/>
<mask id="mask0_220_1537" style="mask-type:alpha" maskUnits="userSpaceOnUse" x="87" y="117" width="382" height="318">
<rect x="90" y="119.5" width="376" height="313" rx="18" fill="#FEE0EC" stroke="#8B2F32" stroke-width="5"/>
</mask>
<g mask="url(#mask0_220_1537)">
<path d="M182 841.5H46L363 61.5H499L182 841.5ZM333 841.5H197L514 61.5H650L333 841.5Z" fill="white" fill-opacity="0.41"/>
</g>
<path d="M139 72.7115C139 46.8386 155.522 23.5326 180.506 16.8083C251.148 -2.20457 303.941 -2.3648 376.283 16.8999C401.367 23.58 418 46.9308 418 72.8899V117.869C418 127.81 409.941 135.869 400 135.869H157C147.059 135.869 139 127.81 139 117.869V72.7115Z" fill="#FCF49A" stroke="#8B2F32" stroke-width="5"/>
<path d="M156 83.4356C156 56.8724 173.39 33.0556 199.291 27.1597C255.736 14.3108 299.769 14.2204 357.52 27.2467C383.509 33.109 401 56.9599 401 83.6024V104.5C401 114.441 392.941 122.5 383 122.5H174C164.059 122.5 156 114.441 156 104.5V83.4356Z" fill="#CAB9ED" stroke="#8B2F32" stroke-width="5"/>
<mask id="mask1_220_1537" style="mask-type:alpha" maskUnits="userSpaceOnUse" x="153" y="15" width="251" height="110">
<path d="M156 83.4356C156 56.8724 173.39 33.0556 199.291 27.1597C255.736 14.3108 299.769 14.2204 357.52 27.2467C383.509 33.109 401 56.9599 401 83.6024V104.5C401 114.441 392.941 122.5 383 122.5H174C164.059 122.5 156 114.441 156 104.5V83.4356Z" fill="#CAB9ED" stroke="#8B2F32" stroke-width="5"/>
</mask>
<g mask="url(#mask1_220_1537)">
<path d="M140.625 162.5H107L165.125 7.5H198.75L140.625 162.5ZM200.625 162.5H167L225.125 7.5H258.75L200.625 162.5ZM260.625 162.5H227L285.125 7.5H318.75L260.625 162.5ZM320.625 162.5H287L345.125 7.5H378.75L320.625 162.5ZM380.625 162.5H347L405.125 7.5H438.75L380.625 162.5Z" fill="#AA94D8"/>
</g>
<path d="M258.375 54.45C257.542 54.45 256.908 54.175 256.475 53.625C256.042 53.075 255.742 52.2583 255.575 51.175C255.425 50.075 255.35 48.7167 255.35 47.1C255.35 46.5167 255.358 45.9667 255.375 45.45C255.392 44.9333 255.408 44.45 255.425 44C253.425 43.9 251.958 43.6167 251.025 43.15C250.092 42.6833 249.625 41.875 249.625 40.725C249.625 39.2917 250.35 38.325 251.8 37.825C253.267 37.325 255.467 37.075 258.4 37.075C261.35 37.075 263.567 37.325 265.05 37.825C266.55 38.325 267.3 39.2917 267.3 40.725C267.3 41.8583 266.825 42.6667 265.875 43.15C264.942 43.6167 263.483 43.9 261.5 44C261.533 44.45 261.558 44.9333 261.575 45.45C261.592 45.9667 261.6 46.5167 261.6 47.1C261.6 49.65 261.375 51.5167 260.925 52.7C260.475 53.8667 259.625 54.45 258.375 54.45ZM275.239 54.475C274.272 54.475 273.539 54.15 273.039 53.5C272.539 52.8333 272.206 51.8583 272.039 50.575C271.872 49.2917 271.789 47.7 271.789 45.8C271.789 43.9 271.872 42.3 272.039 41C272.206 39.7 272.539 38.725 273.039 38.075C273.539 37.4083 274.272 37.075 275.239 37.075C276.089 37.075 276.739 37.3417 277.189 37.875C277.656 38.3917 277.981 39.15 278.164 40.15C278.364 41.15 278.481 42.35 278.514 43.75C278.797 43.75 279.089 43.75 279.389 43.75C279.689 43.75 279.989 43.75 280.289 43.75C280.639 43.75 280.981 43.75 281.314 43.75C281.664 43.75 281.997 43.7583 282.314 43.775C282.347 42.3583 282.456 41.15 282.639 40.15C282.822 39.15 283.139 38.3833 283.589 37.85C284.056 37.3167 284.714 37.05 285.564 37.05C286.531 37.05 287.264 37.3833 287.764 38.05C288.264 38.7167 288.597 39.7 288.764 41C288.947 42.3 289.039 43.9 289.039 45.8C289.039 47.7 288.947 49.2917 288.764 50.575C288.597 51.8583 288.264 52.825 287.764 53.475C287.264 54.125 286.531 54.45 285.564 54.45C284.364 54.45 283.547 53.9333 283.114 52.9C282.681 51.8667 282.422 50.4 282.339 48.5C281.956 48.5167 281.547 48.525 281.114 48.525C280.681 48.525 280.239 48.525 279.789 48.525C279.572 48.525 279.356 48.525 279.139 48.525C278.922 48.525 278.706 48.525 278.489 48.525C278.406 50.4083 278.139 51.875 277.689 52.925C277.256 53.9583 276.439 54.475 275.239 54.475ZM302.845 54.5C302.162 54.5 301.428 54.45 300.645 54.35C299.878 54.25 299.12 54.0417 298.37 53.725C297.62 53.4083 296.937 52.9417 296.32 52.325C295.703 51.7083 295.212 50.8917 294.845 49.875C294.478 48.8417 294.295 47.5667 294.295 46.05C294.295 44.3833 294.578 42.8667 295.145 41.5C295.712 40.1333 296.57 39.0417 297.72 38.225C298.87 37.4083 300.312 37 302.045 37C303.295 37 304.312 37.1083 305.095 37.325C305.895 37.5417 306.52 37.825 306.97 38.175C307.42 38.525 307.728 38.9083 307.895 39.325C308.078 39.7417 308.17 40.1583 308.17 40.575C308.17 41.0083 308.053 41.425 307.82 41.825C307.603 42.225 307.253 42.5417 306.77 42.775C306.303 42.9917 305.82 43.0917 305.32 43.075C304.82 43.0417 304.37 43.025 303.97 43.025C303.103 43.025 302.42 43.1833 301.92 43.5C301.437 43.8 301.095 44.2667 300.895 44.9C301.162 44.8833 301.453 44.875 301.77 44.875C302.103 44.8583 302.445 44.85 302.795 44.85C303.478 44.85 304.128 44.8667 304.745 44.9C305.378 44.9167 305.82 44.95 306.07 45C306.653 45.1167 307.095 45.35 307.395 45.7C307.695 46.0333 307.845 46.4167 307.845 46.85C307.845 47.2667 307.703 47.6417 307.42 47.975C307.137 48.3083 306.678 48.5417 306.045 48.675C305.812 48.725 305.362 48.7667 304.695 48.8C304.045 48.8167 303.362 48.825 302.645 48.825C302.362 48.825 302.087 48.825 301.82 48.825C301.553 48.8083 301.312 48.8 301.095 48.8C301.328 49.3167 301.678 49.725 302.145 50.025C302.628 50.3083 303.245 50.45 303.995 50.45C304.278 50.45 304.687 50.425 305.22 50.375C305.753 50.3083 306.27 50.35 306.77 50.5C307.57 50.75 307.97 51.275 307.97 52.075C307.97 52.5083 307.82 52.9167 307.52 53.3C307.237 53.6667 306.72 53.9583 305.97 54.175C305.237 54.3917 304.195 54.5 302.845 54.5Z" fill="#4C269A"/>
<path d="M222.136 98.396C218.843 98.396 215.844 97.7373 213.14 96.42C210.436 95.068 208.287 93.04 206.692 90.336C205.097 87.632 204.3 84.252 204.3 80.196C204.3 77.804 204.716 75.5333 205.548 73.384C206.38 71.2 207.541 69.2587 209.032 67.56C210.557 65.8613 212.343 64.5267 214.388 63.556C216.433 62.5853 218.687 62.1 221.148 62.1C224.233 62.1 226.937 62.672 229.26 63.816C231.583 64.9253 233.385 66.4507 234.668 68.392C235.985 70.3333 236.644 72.5 236.644 74.892C236.644 75.828 236.453 76.7293 236.072 77.596C235.725 78.428 235.171 79.1213 234.408 79.676C233.68 80.2307 232.727 80.508 231.548 80.508C230.439 80.508 229.555 80.3347 228.896 79.988C228.272 79.6413 227.735 79.2253 227.284 78.74C226.868 78.22 226.435 77.7 225.984 77.18C225.533 76.66 224.979 76.2267 224.32 75.88C223.661 75.5333 222.76 75.36 221.616 75.36C220.541 75.36 219.553 75.6373 218.652 76.192C217.751 76.7467 217.023 77.5093 216.468 78.48C215.948 79.416 215.688 80.4907 215.688 81.704C215.688 83.5067 216.156 85.084 217.092 86.436C218.063 87.788 219.432 88.464 221.2 88.464C222.587 88.464 223.679 88.256 224.476 87.84C225.308 87.424 226.001 86.956 226.556 86.436C227.145 85.8813 227.769 85.396 228.428 84.98C229.121 84.564 230.005 84.356 231.08 84.356C232.605 84.356 233.749 84.8587 234.512 85.864C235.309 86.8693 235.639 88.1 235.5 89.556C235.361 91.0467 234.703 92.468 233.524 93.82C232.38 95.172 230.82 96.2813 228.844 97.148C226.903 97.98 224.667 98.396 222.136 98.396ZM253.694 98.5C250.331 98.5 247.402 97.8067 244.906 96.42C242.444 95.0333 240.815 92.8493 240.018 89.868C239.671 88.5507 239.446 86.956 239.342 85.084C239.272 83.1773 239.238 81.1667 239.238 79.052C239.238 76.972 239.324 74.9267 239.498 72.916C239.706 70.9053 240.087 69.0853 240.642 67.456C241.196 65.8267 242.028 64.5267 243.138 63.556C244.282 62.5853 245.79 62.1 247.662 62.1C249.118 62.1 250.331 62.4467 251.301 63.14C252.307 63.8333 253.07 64.752 253.59 65.896C254.11 67.04 254.37 68.3053 254.37 69.692C254.37 72.292 254.127 75.0827 253.642 78.064C253.156 81.0453 252.671 83.8533 252.186 86.488C253.295 86.1413 254.56 85.8813 255.982 85.708C257.438 85.5 258.894 85.4307 260.35 85.5C261.84 85.5347 263.21 85.7773 264.458 86.228C265.706 86.644 266.711 87.3027 267.474 88.204C268.236 89.0707 268.618 90.2147 268.618 91.636C268.618 93.3347 268.184 94.6693 267.317 95.64C266.451 96.576 265.29 97.252 263.834 97.668C262.378 98.0493 260.766 98.292 258.998 98.396C257.23 98.4653 255.462 98.5 253.694 98.5ZM278.326 98.604C275.934 98.604 274.045 97.4427 272.658 95.12C271.306 92.7973 270.509 89.7467 270.266 85.968C269.989 81.288 270.491 77.1627 271.774 73.592C273.091 69.9867 275.067 67.1787 277.702 65.168C280.337 63.1573 283.474 62.152 287.114 62.152C290.789 62.152 293.926 63.1573 296.526 65.168C299.161 67.1787 301.119 69.9693 302.402 73.54C303.719 77.1107 304.222 81.2533 303.91 85.968C303.667 89.8507 302.853 92.9187 301.466 95.172C300.114 97.4253 298.242 98.552 295.85 98.552C294.498 98.552 293.458 98.3093 292.73 97.824C292.002 97.304 291.482 96.6627 291.17 95.9C290.893 95.1027 290.754 94.3053 290.754 93.508C290.754 92.676 290.806 91.9653 290.91 91.376C289.801 91.4107 288.501 91.4453 287.01 91.48C285.519 91.48 284.271 91.4453 283.266 91.376C283.37 91.9653 283.422 92.676 283.422 93.508C283.422 94.3053 283.266 95.1027 282.954 95.9C282.677 96.6627 282.174 97.304 281.446 97.824C280.718 98.344 279.678 98.604 278.326 98.604ZM282.902 82.12C285.641 82.016 288.379 82.016 291.118 82.12C291.291 80.9067 291.274 79.7453 291.066 78.636C290.858 77.5267 290.425 76.6253 289.766 75.932C289.107 75.2387 288.171 74.892 286.958 74.892C285.745 74.892 284.809 75.2387 284.15 75.932C283.526 76.6253 283.11 77.5267 282.902 78.636C282.729 79.7107 282.729 80.872 282.902 82.12ZM319.234 98.5C316.46 98.5 314.034 97.7373 311.954 96.212C309.908 94.6867 308.331 92.5373 307.222 89.764C306.112 86.956 305.558 83.628 305.558 79.78C305.558 78.22 305.748 76.5213 306.13 74.684C306.546 72.812 307.152 71.044 307.95 69.38C308.747 67.6813 309.718 66.2947 310.862 65.22C312.006 64.1453 313.323 63.608 314.814 63.608C316.374 63.608 317.639 64.1627 318.61 65.272C319.615 66.3813 320.118 67.7507 320.118 69.38C320.118 70.212 319.892 71.2867 319.442 72.604C318.991 73.8867 318.54 75.2733 318.09 76.764C317.639 78.22 317.414 79.6413 317.414 81.028C317.414 82.6573 317.656 83.8013 318.142 84.46C318.627 85.084 319.164 85.396 319.754 85.396C320.62 85.396 321.227 84.9627 321.574 84.096C321.955 83.2293 322.146 81.5827 322.146 79.156C322.146 77.8733 322.128 76.504 322.094 75.048C322.094 73.592 322.215 72.2227 322.458 70.94C322.735 69.6227 323.255 68.548 324.018 67.716C324.815 66.884 325.994 66.468 327.554 66.468C329.114 66.468 330.292 66.8667 331.09 67.664C331.922 68.4613 332.476 69.5013 332.754 70.784C333.031 72.032 333.17 73.3667 333.17 74.788C333.204 76.2093 333.222 77.5613 333.222 78.844C333.222 81.444 333.447 83.264 333.898 84.304C334.348 85.3093 335.042 85.812 335.978 85.812C336.671 85.812 337.208 85.4307 337.59 84.668C337.971 83.8707 338.127 82.6573 338.058 81.028C337.988 79.6413 337.728 78.272 337.278 76.92C336.827 75.5333 336.376 74.1987 335.926 72.916C335.51 71.6333 335.302 70.4547 335.302 69.38C335.302 67.6813 335.839 66.312 336.914 65.272C337.988 64.232 339.219 63.712 340.606 63.712C342.235 63.712 343.639 64.2493 344.818 65.324C345.996 66.3987 346.967 67.768 347.73 69.432C348.492 71.096 349.047 72.8467 349.394 74.684C349.775 76.5213 349.966 78.22 349.966 79.78C349.966 83.628 349.411 86.956 348.302 89.764C347.192 92.5373 345.615 94.6867 343.57 96.212C341.524 97.7027 339.098 98.448 336.29 98.448C334.799 98.448 333.326 98.1187 331.87 97.46C330.414 96.7667 329.044 95.7093 327.762 94.288C326.479 95.7093 325.092 96.7667 323.602 97.46C322.146 98.1533 320.69 98.5 319.234 98.5Z" fill="#4C269A"/>
<ellipse cx="44.0879" cy="162" rx="13" ry="12.5" transform="rotate(180 44.0879 162)" fill="#97AAFF" stroke="#8B2F32" stroke-width="5"/>
<circle cx="26.5879" cy="153" r="21.5" transform="rotate(180 26.5879 153)" fill="#FCF49A" stroke="#8B2F32" stroke-width="5"/>
<circle cx="21" cy="149.5" r="9" fill="#FEFCF4"/>
<ellipse cx="45.6206" cy="251.229" rx="13" ry="12.5" transform="rotate(168.505 45.6206 251.229)" fill="#97AAFF" stroke="#8B2F32" stroke-width="5"/>
<circle cx="26.6782" cy="245.897" r="21.5" transform="rotate(168.505 26.6782 245.897)" fill="#FCF49A" stroke="#8B2F32" stroke-width="5"/>
<circle cx="21" cy="245.5" r="9" fill="#FEFCF4"/>
<ellipse cx="13" cy="12.5" rx="13" ry="12.5" transform="matrix(-0.957685 -0.28782 -0.28782 0.957685 62.1758 323.893)" fill="#97AAFF" stroke="#8B2F32" stroke-width="5"/>
<circle cx="21.5" cy="21.5" r="21.5" transform="matrix(-0.957685 -0.28782 -0.28782 0.957685 53.5566 321.303)" fill="#FCF49A" stroke="#8B2F32" stroke-width="5"/>
<circle cx="21" cy="332.5" r="9" fill="#FEFCF4"/>
<ellipse cx="13" cy="12.5" rx="13" ry="12.5" transform="matrix(-1 0 0 1 58.0879 407.5)" fill="#97AAFF" stroke="#8B2F32" stroke-width="5"/>
<circle cx="21.5" cy="21.5" r="21.5" transform="matrix(-1 0 0 1 49.0879 407.5)" fill="#FCF49A" stroke="#8B2F32" stroke-width="5"/>
<circle cx="21" cy="424.5" r="9" fill="#FEFCF4"/>
</svg>
