<svg width="555" height="884" viewBox="0 0 555 884" fill="none" xmlns="http://www.w3.org/2000/svg">
<style>
  .bulb-row-1, .bulb-row-2, .bulb-row-3, .bulb-row-4 {
    animation: bulbGlow 1.6s ease-in-out infinite;
    will-change: filter;
    transform: translateZ(0);
  }
  .bulb-row-1 { animation-delay: 0s; }
  .bulb-row-2 { animation-delay: 0.4s; }
  .bulb-row-3 { animation-delay: 0.8s; }
  .bulb-row-4 { animation-delay: 1.2s; }
  .bulb-light {
    animation: bulbFill 1.6s ease-in-out infinite;
    will-change: fill;
  }
  .bulb-row-1 .bulb-light { animation-delay: 0s; }
  .bulb-row-2 .bulb-light { animation-delay: 0.4s; }
  .bulb-row-3 .bulb-light { animation-delay: 0.8s; }
  .bulb-row-4 .bulb-light { animation-delay: 1.2s; }
  @keyframes bulbGlow {
    0%, 100% {
      filter: drop-shadow(0 0 2px rgba(252, 244, 154, 0.1));
    }
    20%, 35% {
      filter: drop-shadow(0 0 14px rgba(255, 255, 200, 1)) drop-shadow(0 0 24px rgba(252, 182, 154, 0.7));
    }
  }
  @keyframes bulbFill {
    0%, 100% {
      fill: #E8C36A;
    }
    20%, 35% {
      fill: #FFFDE0;
    }
  }
</style>
<path d="M209.99 46.5708L209.546 92.686C265.955 85.445 311.815 88.7339 344.29 94L343.072 48.9816C343.024 47.1775 344.824 45.8772 346.611 45.6258C354.983 44.4481 359.398 29.9349 349.556 23.5802C335.616 14.5795 325.795 28.4899 328.096 38.5078C328.455 40.0718 327.788 41.8498 326.253 42.3169C306.078 48.4548 293.515 40.1137 287.211 31.6983C286.331 30.5244 286.747 28.8945 287.849 27.9257C297.215 19.6877 294.243 1.90022 275.171 2.51556C255.532 3.14919 256.31 24.4756 264.807 28.7597C266.298 29.5116 267.62 31.0654 266.878 32.5617C261.112 44.1865 238.291 44.4434 226.09 42.0362C224.527 41.7277 223.75 40.0612 224.425 38.6172C226.348 34.503 228.349 29.6921 225.142 24.8813C217.94 14.0786 201.444 19.6151 199.469 30.8058C198.026 38.9838 204.163 44.1354 208.749 45.1327C209.44 45.2831 209.996 45.8632 209.99 46.5708Z" fill="url(#paint0_linear_221_1539)" stroke="#8B2F32" stroke-width="5"/>
<rect x="268.296" y="18.957" width="10.5598" height="10.5598" transform="rotate(-45 268.296 18.957)" fill="#FCF49A" stroke="#8B2F32" stroke-width="3.94964" stroke-linejoin="round"/>
<rect x="334.598" y="31.0885" width="10.5598" height="10.5598" transform="rotate(-15 334.598 31.0885)" fill="#FCF49A" stroke="#8B2F32" stroke-width="3.94964" stroke-linejoin="round"/>
<rect x="205.52" y="33.9616" width="10.5598" height="10.5598" transform="rotate(-60 205.52 33.9616)" fill="#FCF49A" stroke="#8B2F32" stroke-width="3.94964" stroke-linejoin="round"/>
<path d="M173.184 61.2536C175.256 54.0466 184.253 51.6358 189.651 56.841L195.095 62.0905C196.229 63.1844 197.759 63.7715 199.334 63.7176L206.892 63.4588C214.387 63.2024 219.46 71.0152 216.178 77.7575L212.867 84.5571C212.177 85.9737 212.091 87.6096 212.629 89.0906L215.211 96.1987C217.771 103.247 211.908 110.487 204.482 109.449L196.992 108.401C195.432 108.183 193.85 108.607 192.607 109.576L186.644 114.228C180.732 118.84 172.036 115.502 170.728 108.118L169.409 100.671C169.135 99.1198 168.243 97.746 166.937 96.8639L160.67 92.6308C154.456 88.433 154.944 79.13 161.562 75.6048L168.237 72.0501C169.628 71.3093 170.659 70.036 171.094 68.5215L173.184 61.2536Z" fill="url(#paint1_linear_221_1539)" stroke="#8B2F32" stroke-width="4.12932"/>
<path d="M125.292 89.6873C127.128 83.2994 135.103 81.1626 139.887 85.7764L144.55 90.2725C145.464 91.1537 146.696 91.6271 147.965 91.5837L154.439 91.3616C161.081 91.1343 165.579 98.0593 162.669 104.035L159.834 109.859C159.278 111.001 159.209 112.319 159.642 113.512L161.854 119.601C164.122 125.848 158.926 132.265 152.344 131.344L145.929 130.447C144.671 130.271 143.396 130.613 142.395 131.394L137.288 135.379C132.047 139.467 124.34 136.508 123.181 129.963L122.051 123.584C121.83 122.334 121.111 121.227 120.059 120.517L114.692 116.891C109.184 113.17 109.615 104.925 115.482 101.8L121.199 98.7556C122.32 98.1587 123.151 97.1326 123.502 95.9124L125.292 89.6873Z" fill="url(#paint2_linear_221_1539)" stroke="#8B2F32" stroke-width="4.12932"/>
<path d="M374.389 61.2536C372.317 54.0466 363.32 51.6358 357.922 56.841L352.478 62.0905C351.344 63.1844 349.814 63.7715 348.239 63.7176L340.681 63.4588C333.186 63.2024 328.113 71.0152 331.395 77.7575L334.706 84.5571C335.396 85.9737 335.482 87.6096 334.944 89.0906L332.362 96.1987C329.802 103.247 335.665 110.487 343.091 109.449L350.581 108.401C352.141 108.183 353.723 108.607 354.966 109.576L360.929 114.228C366.841 118.84 375.537 115.502 376.845 108.118L378.164 100.671C378.438 99.1198 379.33 97.746 380.636 96.8639L386.903 92.6308C393.117 88.433 392.629 79.13 386.011 75.6048L379.336 72.0501C377.945 71.3093 376.914 70.036 376.479 68.5215L374.389 61.2536Z" fill="url(#paint3_linear_221_1539)" stroke="#8B2F32" stroke-width="4.12932"/>
<path d="M422.281 89.6873C420.445 83.2994 412.47 81.1626 407.686 85.7764L403.023 90.2725C402.109 91.1537 400.877 91.6271 399.608 91.5837L393.134 91.3616C386.491 91.1343 381.994 98.0593 384.904 104.035L387.739 109.859C388.295 111.001 388.364 112.319 387.931 113.512L385.719 119.601C383.451 125.848 388.647 132.265 395.229 131.344L401.644 130.447C402.902 130.271 404.177 130.613 405.178 131.394L410.285 135.379C415.526 139.467 423.233 136.508 424.392 129.963L425.522 123.584C425.743 122.334 426.462 121.227 427.514 120.517L432.881 116.891C438.389 113.17 437.958 104.925 432.091 101.8L426.374 98.7556C425.253 98.1587 424.422 97.1326 424.071 95.9124L422.281 89.6873Z" fill="url(#paint4_linear_221_1539)" stroke="#8B2F32" stroke-width="4.12932"/>
<rect x="40" y="154.5" width="476" height="727" rx="57" fill="url(#paint5_linear_221_1539)" stroke="#8B2F32" stroke-width="5"/>
<path d="M74.6679 582.929C77.0582 575.551 86.2965 573.076 92.0555 578.27L92.3317 578.528L92.7778 578.958C93.5062 579.661 94.4883 580.038 95.4997 580.004L96.1206 579.983C104.209 579.706 109.685 588.138 106.142 595.415L105.871 595.971C105.427 596.881 105.372 597.932 105.718 598.884L105.929 599.467C108.692 607.075 102.365 614.889 94.3494 613.768L93.7365 613.682C92.7331 613.541 91.7157 613.814 90.9172 614.438L90.4301 614.818C84.0485 619.797 74.6622 616.193 73.2511 608.223L73.1426 607.612C72.9657 606.616 72.3928 605.734 71.5547 605.168L71.0401 604.82C64.3334 600.289 64.86 590.25 72.0035 586.445L72.5518 586.152C73.4443 585.677 74.1058 584.859 74.3856 583.888L74.5574 583.29L74.6679 582.929Z" fill="white"/>
<path d="M79.8431 584.81C80.9341 581.016 85.6718 579.746 88.5138 582.487L91.0946 584.976C91.5309 585.397 92.1196 585.623 92.7252 585.602L96.3077 585.479C100.254 585.344 102.925 589.457 101.197 593.007L99.6273 596.23C99.362 596.775 99.3287 597.405 99.5356 597.975L100.76 601.345C102.108 605.056 99.0213 608.867 95.1112 608.32L91.56 607.824C90.9599 607.74 90.3512 607.903 89.8734 608.276L87.0461 610.481C83.9332 612.91 79.3549 611.152 78.6664 607.265L78.0418 603.734C77.9362 603.137 77.5925 602.608 77.0903 602.269L74.1191 600.263C70.8474 598.053 71.1046 593.154 74.5895 591.298L77.7534 589.614C78.2882 589.329 78.6852 588.839 78.8527 588.256L79.8431 584.81Z" fill="#FCF99B" stroke="#8B2F32" stroke-width="3"/>
<rect x="71" y="188.5" width="414" height="347" rx="31" fill="url(#paint6_linear_221_1539)" stroke="#8B2F32" stroke-width="5"/>
<rect x="76" y="679.5" width="233" height="162" rx="31" fill="#E97A9A" stroke="#8B2F32" stroke-width="5"/>
<path d="M229 586.5C229 579.873 234.373 574.5 241 574.5H473C479.627 574.5 485 579.873 485 586.5L485 617.338C485 623.503 481.662 629.185 476.277 632.187L424.859 660.849C422.328 662.26 419.479 663 416.582 663H297.418C294.521 663 291.672 662.26 289.141 660.849L237.723 632.187C232.338 629.185 229 623.503 229 617.338L229 586.5Z" fill="url(#paint7_linear_221_1539)"/>
<path d="M229 586.5C229 579.873 234.373 574.5 241 574.5H473C479.627 574.5 485 579.873 485 586.5L485 617.338C485 623.503 481.662 629.185 476.277 632.187L424.859 660.849C422.328 662.26 419.479 663 416.582 663H297.418C294.521 663 291.672 662.26 289.141 660.849L237.723 632.187C232.338 629.185 229 623.503 229 617.338L229 586.5Z" stroke="#8B2F32" stroke-width="5"/>
<rect x="90" y="204.5" width="376" height="313" rx="18" fill="#FEE0EC" stroke="#8B2F32" stroke-width="5"/>
<rect x="90" y="692.5" width="203" height="135" rx="18" fill="#FEE0EC" stroke="#8B2F32" stroke-width="5"/>
<path d="M337.366 609.934C343.754 609.875 349.902 610.429 356.311 610.43C364.27 610.431 372.355 609.902 380.332 610.001C388.262 610.099 396.231 610.241 404.175 610.415C410.453 610.553 416.723 610.711 423 610.885L422.004 611.144C423.49 610.369 424.976 609.594 426.463 608.821C433.51 605.156 440.583 601.501 447.652 597.863C452.454 595.392 457.263 592.924 462.068 590.46C464.178 589.378 466.281 588.3 468.39 587.22C469.963 586.414 471.536 585.608 473.109 584.802C473.328 584.69 473.551 584.607 473.729 584.571C473.908 584.536 474.029 584.552 474.065 584.617C474.101 584.682 474.05 584.794 473.926 584.927C473.801 585.061 473.612 585.206 473.402 585.333C471.875 586.253 470.348 587.173 468.822 588.093C467.126 589.114 465.433 590.134 463.738 591.155C463.316 591.039 462.83 591.045 462.08 591.345C461.698 591.498 461.167 591.77 460.811 592.033C460.492 592.27 460.277 592.494 460.073 592.707C459.86 592.93 459.657 593.142 459.357 593.344C458.849 593.686 458.404 594.083 457.938 594.499C457.768 594.651 457.596 594.805 457.416 594.96C455.797 595.934 454.177 596.908 452.558 597.88C451.905 598.207 451.307 598.51 450.816 598.798C450.376 599.057 449.999 599.341 449.632 599.638C449.381 599.788 449.13 599.939 448.88 600.089C447.261 601.06 445.642 602.031 444.022 603.001C442.696 603.647 441.309 604.329 439.539 605.276C438.777 605.684 438.01 606.06 437.273 606.423C436.184 606.958 435.16 607.462 434.308 607.987C433.739 608.337 433.105 608.642 432.471 608.945C431.622 609.352 430.774 609.759 430.089 610.276C429.658 610.601 429.273 610.919 428.916 611.213C428.349 611.682 427.853 612.091 427.357 612.377C426.425 612.914 425.658 613.452 424.982 613.927C424.615 614.185 424.275 614.424 423.95 614.633L423.46 614.891L423 614.88C422.531 614.91 422.102 614.913 421.703 614.862C421.592 614.848 421.466 614.829 421.324 614.808C420.575 614.696 419.378 614.516 417.659 614.615C417.047 614.65 416.472 614.741 415.909 614.831C415.089 614.961 414.293 615.088 413.441 615.032C413.313 615.023 413.18 614.988 413.059 614.956C412.905 614.915 412.771 614.879 412.691 614.91C412.458 615.001 412.087 615.102 411.684 615.212C411.388 615.293 411.075 615.379 410.785 615.468C408.577 615.519 406.368 615.568 404.158 615.614C403.146 615.635 402.133 615.656 401.12 615.676C400.602 615.538 400.073 615.414 399.513 615.32C398.782 615.198 397.834 615.16 396.611 615.112C395.712 615.076 394.664 615.034 393.444 614.948C391.187 614.79 388.867 614.825 387.381 614.91C387.067 614.928 386.751 614.947 386.413 614.968C385.131 615.048 383.532 615.147 380.493 615.256C377.62 615.36 375.175 615.387 373.339 615.407C372.402 615.417 371.623 615.426 371.026 615.442C370.005 615.469 368.751 615.494 367.492 615.519C365.522 615.557 363.54 615.596 362.417 615.647C362.018 615.665 361.598 615.688 361.146 615.712C359.891 615.779 358.375 615.86 356.287 615.906C354.094 615.955 352.735 615.922 351.323 615.849C350.749 615.82 350.243 615.703 349.721 615.583C348.981 615.411 348.209 615.233 347.165 615.286C346.921 615.299 346.661 615.326 346.389 615.356C345.889 615.409 345.348 615.467 344.795 615.442C344.602 615.433 344.432 615.401 344.265 615.37C344.082 615.336 343.902 615.303 343.698 615.301C342.937 615.294 342.197 615.302 341.539 615.309C340.691 615.318 339.979 615.325 339.538 615.298C338.751 615.248 337.891 615.293 337.02 615.338C336.354 615.372 335.682 615.407 335.031 615.4C333.171 615.382 330.613 615.466 327.978 615.607C326.981 615.66 326.136 615.587 325.053 615.494C324.38 615.436 323.614 615.37 322.663 615.322C322.124 615.294 321.667 615.359 321.244 615.418C320.854 615.473 320.493 615.524 320.123 615.496C319.796 615.47 319.589 615.361 319.392 615.258C319.174 615.143 318.968 615.035 318.624 615.056C318.441 615.068 318.218 615.122 317.953 615.187C317.849 615.212 317.737 615.239 317.619 615.266C317.625 615.244 317.626 615.224 317.626 615.209C317.627 615.104 317.275 615.048 316.931 614.994C316.793 614.972 316.656 614.951 316.544 614.926C316.13 614.836 315.345 614.822 314.746 614.826C314.493 614.828 314.263 614.795 313.995 614.757C313.757 614.723 313.489 614.685 313.147 614.662C312.951 614.65 312.802 614.619 312.678 614.594C312.588 614.575 312.512 614.559 312.441 614.555C312.38 614.552 312.33 614.582 312.274 614.616C312.234 614.64 312.191 614.667 312.137 614.684C312.01 614.726 311.846 614.738 311.73 614.725C311.677 614.719 311.635 614.707 311.593 614.695C311.545 614.682 311.496 614.668 311.43 614.663C311.124 614.641 310.827 614.676 310.518 614.711C310.178 614.751 309.824 614.792 309.43 614.761C309.306 614.752 309.173 614.729 309.045 614.708C308.912 614.686 308.781 614.664 308.671 614.658C308.221 614.635 307.799 614.71 307.411 614.78C307.152 614.826 306.908 614.869 306.682 614.879C306.267 614.897 306.045 614.988 305.88 615.055C305.795 615.089 305.726 615.118 305.653 615.126C305.586 615.124 305.519 615.121 305.452 615.118C305.392 615.111 305.329 615.104 305.27 615.106C305.265 615.106 305.261 615.107 305.256 615.107C304.885 615.085 304.521 615.054 304.159 615.023C303.346 614.953 302.542 614.884 301.693 614.923C301.51 614.931 301.323 614.969 301.133 615.007C300.901 615.053 300.663 615.101 300.421 615.097C299.844 615.089 299.261 615.028 298.687 614.967C297.824 614.876 296.98 614.786 296.205 614.884C295.949 614.917 295.699 614.97 295.449 615.025C295.309 615.055 295.169 615.085 295.028 615.112C295.058 615.063 295.074 615.016 295.088 614.973C295.119 614.883 295.146 614.807 295.281 614.742C295.603 614.589 295.967 614.377 295.926 614.223C295.915 614.182 295.924 614.135 295.934 614.088C295.958 613.971 295.983 613.85 295.685 613.796C295.484 613.759 294.967 613.675 294.639 613.765C294.567 613.785 294.523 613.824 294.475 613.867C294.388 613.945 294.284 614.036 293.973 614.058C293.92 614.061 293.863 614.065 293.804 614.068C293.57 614.08 293.306 614.093 293.208 614.155C293.095 614.227 293.119 614.31 293.147 614.405C293.184 614.53 293.228 614.679 292.984 614.858C292.935 614.893 292.843 614.905 292.773 614.914C292.724 614.921 292.687 614.926 292.683 614.937C292.679 614.949 292.695 614.974 292.715 615.006C292.78 615.112 292.889 615.289 292.5 615.322L291.809 615.305L291.315 615.008C291.287 614.995 291.256 614.979 291.223 614.961C291.102 614.895 290.97 614.808 290.851 614.731C290.676 614.616 290.53 614.522 290.494 614.538C290.481 614.545 290.469 614.553 290.457 614.563C290.315 614.477 290.173 614.391 290.03 614.306C289.864 614.166 289.603 614.021 289.276 613.84C289.197 613.796 289.114 613.75 289.027 613.701C288.746 613.532 288.465 613.362 288.185 613.193C287.967 613.05 287.74 612.89 287.508 612.708C287.041 612.345 286.669 611.971 286.305 611.606C286.151 611.452 285.999 611.299 285.842 611.149C285.917 611.184 285.985 611.214 286.039 611.234C286.414 611.365 286.619 611.32 286.809 611.278C286.935 611.251 287.053 611.225 287.209 611.253C287.495 611.306 287.527 611.194 287.551 611.112C287.563 611.069 287.573 611.035 287.615 611.035C287.649 611.035 287.712 611.061 287.777 611.089C287.834 611.113 287.892 611.138 287.934 611.146C288.441 611.246 288.361 611.09 288.243 610.863C288.179 610.738 288.103 610.591 288.109 610.454C288.125 610.314 288.16 610.291 288.409 610.373C288.266 610.218 288.124 610.064 287.982 609.909C287.912 609.874 287.84 609.879 287.735 609.896C287.547 609.924 287.103 609.721 286.756 609.562C286.595 609.489 286.455 609.425 286.371 609.398C285.924 609.254 285.973 609.437 286.017 609.598C286.041 609.687 286.063 609.769 286 609.786C285.973 609.794 285.988 609.825 286.002 609.856C286.014 609.881 286.026 609.906 286.019 609.92C285.965 610.026 285.686 609.967 285.426 609.912C285.278 609.881 285.136 609.852 285.046 609.855C285.019 609.856 284.996 609.859 284.974 609.863C284.942 609.869 284.91 609.874 284.869 609.869C284.773 609.859 284.603 609.792 284.417 609.719C284.321 609.681 284.222 609.641 284.126 609.607C284.001 609.563 283.937 609.58 283.87 609.598C283.823 609.611 283.774 609.623 283.701 609.615C283.569 609.601 283.345 609.496 283.138 609.398C283.048 609.355 282.961 609.314 282.885 609.283C282.855 609.27 282.837 609.269 282.828 609.277C282.484 609.123 282.155 608.979 281.834 608.838C280.224 608.134 278.831 607.524 276.927 606.305C276.567 606.074 276.167 605.851 275.756 605.637C274.491 604.863 273.226 604.087 271.964 603.311C271.762 603.073 271.494 602.818 271.16 602.547C270.532 602.038 269.833 601.607 269.009 601.099C268.399 600.723 267.721 600.305 266.951 599.781C265.657 598.901 264.318 598.016 262.776 597.074C261.24 596.136 259.47 595.081 258.212 594.347C257.525 593.947 256.848 593.451 256.216 592.989C255.327 592.34 254.53 591.757 253.929 591.6C253.737 591.551 253.532 591.537 253.333 591.523C253.191 591.514 253.051 591.504 252.921 591.482C252.641 591.306 252.361 591.131 252.082 590.955C251.625 590.571 250.891 590.019 250.066 589.687C249.778 589.506 249.489 589.324 249.211 589.148C248.603 588.766 248.008 588.39 247.409 588.011C247.213 587.888 247.015 587.763 246.817 587.638C246.815 587.636 246.813 587.635 246.812 587.634C246.413 587.382 246.011 587.128 245.616 586.878C245.447 586.771 245.277 586.664 245.108 586.556C244.678 586.284 244.245 586.01 243.82 585.74C243.595 585.597 243.367 585.453 243.14 585.309C242.77 585.074 242.398 584.838 242.028 584.603C241.429 584.223 240.834 583.844 240.237 583.464C240.139 583.402 240.052 583.331 239.994 583.267C239.937 583.203 239.914 583.151 239.932 583.12C239.949 583.09 240.006 583.083 240.091 583.1C240.175 583.117 240.28 583.157 240.383 583.209C241.014 583.53 241.644 583.851 242.276 584.173C242.667 584.372 243.059 584.573 243.449 584.772C243.689 584.894 243.929 585.017 244.166 585.138C244.615 585.367 245.072 585.601 245.525 585.833C245.703 585.924 245.882 586.016 246.06 586.107C246.477 586.32 246.901 586.538 247.322 586.754C247.325 586.755 247.327 586.757 247.33 586.758C247.537 586.864 247.743 586.97 247.948 587.075C248.579 587.399 249.205 587.72 249.844 588.05C250.174 588.219 250.518 588.397 250.859 588.573C251.049 588.671 251.239 588.768 251.425 588.864C251.527 588.917 251.63 588.97 251.734 589.024C254.115 590.252 256.478 591.475 258.861 592.713C261.234 593.947 263.61 595.187 265.976 596.426C268.349 597.669 270.715 598.912 273.081 600.16C279.912 603.763 286.746 607.391 293.573 611.047L292.5 610.763C301.776 610.517 311.064 610.311 320.354 610.155C322.785 610.114 325.279 610.077 327.715 610.044C330.178 610.011 332.59 609.981 335.058 609.956C335.808 609.948 336.577 609.941 337.366 609.934Z" fill="white"/>
<path d="M316.167 866.995C303.74 867.063 291.781 866.417 279.311 866.416C263.829 866.415 248.101 867.032 232.583 866.917C217.155 866.802 201.652 866.637 186.199 866.433C170.728 866.23 155.28 865.988 139.802 865.72C125.858 865.478 111.888 865.215 97.9298 864.939C96.366 864.909 94.8158 864.792 93.2742 864.587C82.4803 863.197 72.4896 857.212 66.157 848.594C63.3635 844.825 61.2518 840.587 59.939 836.119C58.9584 832.788 58.4243 829.334 58.3424 825.88C58.3309 825.402 58.3612 824.941 58.4226 824.601C58.4841 824.261 58.5693 824.07 58.6562 824.07C58.7435 824.071 58.827 824.263 58.8968 824.599C58.9665 824.934 59.0183 825.385 59.0495 825.854C59.2728 829.27 59.9457 832.644 61.0485 835.863C62.2722 839.44 64.0213 842.815 66.215 845.864C66.2587 846.552 66.5032 847.391 67.3802 848.677C67.8267 849.332 68.5652 850.226 69.1952 850.801C69.7594 851.319 70.2397 851.651 70.698 851.958C71.1782 852.278 71.6368 852.572 72.1739 853.004C73.0873 853.736 74.0442 854.319 75.0658 854.88C75.4376 855.084 75.8189 855.286 76.2116 855.49C79.1775 857.456 82.4124 859.001 85.785 860.062C87.0686 860.536 88.2783 860.895 89.3189 861.121C90.2574 861.324 91.129 861.413 92.005 861.456C92.5459 861.53 93.0854 861.592 93.6304 861.643C95.0594 861.775 96.4908 861.827 97.9298 861.799C100.104 861.758 102.279 861.717 104.454 861.676C107.318 861.771 110.321 861.864 114.225 861.905C115.907 861.922 117.567 861.974 119.163 862.023C121.52 862.096 123.737 862.165 125.681 862.114C126.98 862.079 128.347 862.13 129.711 862.18C131.539 862.248 133.364 862.315 135.019 862.178C136.059 862.091 137.015 861.986 137.9 861.888C139.308 861.733 140.538 861.597 141.652 861.588C143.744 861.571 145.557 861.458 147.154 861.358C149.075 861.238 150.687 861.137 152.102 861.246C152.316 861.262 152.562 861.284 152.838 861.309C154.295 861.44 156.624 861.649 159.969 861.534C161.159 861.493 162.278 861.386 163.373 861.282C164.967 861.13 166.516 860.982 168.174 861.048C168.422 861.058 168.681 861.099 168.916 861.136C169.216 861.184 169.477 861.226 169.632 861.19C170.087 861.083 170.808 860.965 171.591 860.837C172.167 860.743 172.777 860.643 173.34 860.538C177.636 860.479 181.934 860.422 186.232 860.368C188.201 860.344 190.171 860.32 192.142 860.296C193.149 860.457 194.18 860.601 195.268 860.711C196.691 860.854 198.536 860.898 200.913 860.954C202.663 860.996 204.702 861.045 207.074 861.145C211.467 861.33 215.978 861.289 218.869 861.189C219.481 861.168 220.095 861.146 220.753 861.121C223.246 861.029 226.358 860.913 232.268 860.785C237.859 860.665 242.614 860.633 246.186 860.61C248.009 860.598 249.524 860.588 250.685 860.569C252.672 860.537 255.112 860.508 257.561 860.48C261.393 860.435 265.25 860.39 267.433 860.33C268.21 860.308 269.026 860.282 269.907 860.254C272.347 860.176 275.296 860.081 279.359 860.027C283.625 859.97 286.269 860.009 289.016 860.094C290.132 860.128 291.117 860.264 292.131 860.405C293.571 860.605 295.073 860.813 297.105 860.751C297.579 860.736 298.085 860.704 298.614 860.67C299.587 860.607 300.638 860.539 301.715 860.569C302.091 860.579 302.422 860.616 302.746 860.653C303.103 860.692 303.452 860.731 303.849 860.734C305.328 860.742 306.769 860.733 308.048 860.724C309.699 860.714 311.083 860.705 311.941 860.737C313.472 860.795 315.146 860.743 316.841 860.691C318.135 860.65 319.443 860.61 320.709 860.617C324.327 860.639 329.303 860.541 334.43 860.377C336.37 860.315 338.014 860.399 340.12 860.508C341.43 860.576 342.918 860.653 344.769 860.709C345.818 860.741 346.707 860.666 347.53 860.596C348.288 860.532 348.99 860.473 349.711 860.506C350.347 860.536 350.75 860.663 351.132 860.783C351.557 860.917 351.957 861.043 352.627 861.018C352.983 861.005 353.416 860.942 353.931 860.867C354.135 860.837 354.353 860.805 354.583 860.774C354.571 860.8 354.568 860.823 354.568 860.84C354.567 860.963 355.25 861.028 355.92 861.091C356.188 861.117 356.454 861.142 356.673 861.17C357.479 861.275 359.004 861.292 360.17 861.288C360.663 861.286 361.11 861.324 361.632 861.368C362.095 861.408 362.617 861.452 363.282 861.478C363.662 861.493 363.953 861.529 364.194 861.558C364.369 861.58 364.517 861.598 364.655 861.603C364.774 861.607 364.871 861.572 364.979 861.532C365.057 861.504 365.141 861.473 365.245 861.453C365.494 861.404 365.813 861.39 366.037 861.405C366.141 861.412 366.222 861.426 366.303 861.44C366.398 861.456 366.492 861.472 366.622 861.477C367.217 861.503 367.795 861.463 368.396 861.421C369.057 861.375 369.746 861.327 370.513 861.363C370.754 861.374 371.011 861.4 371.26 861.425C371.521 861.451 371.774 861.476 371.989 861.483C372.863 861.51 373.685 861.422 374.441 861.341C374.943 861.287 375.418 861.237 375.858 861.225C376.665 861.204 377.098 861.099 377.418 861.021C377.583 860.98 377.718 860.947 377.86 860.937C377.99 860.94 378.121 860.943 378.25 860.947C378.368 860.955 378.491 860.963 378.605 860.96C378.614 860.96 378.623 860.96 378.631 860.96C379.353 860.985 380.062 861.021 380.766 861.058C382.349 861.139 383.912 861.219 385.564 861.174C385.92 861.164 386.283 861.121 386.652 861.076C387.104 861.022 387.567 860.967 388.038 860.971C389.161 860.98 390.294 861.052 391.411 861.123C393.09 861.229 394.731 861.333 396.24 861.219C396.737 861.182 397.223 861.119 397.71 861.056C397.982 861.02 398.255 860.985 398.53 860.954C398.472 861.011 398.441 861.066 398.412 861.116C398.352 861.22 398.3 861.309 398.036 861.385C397.411 861.564 396.703 861.811 396.782 861.99C396.803 862.039 396.786 862.093 396.767 862.148C396.72 862.285 396.671 862.426 397.252 862.489C397.643 862.532 398.648 862.63 399.287 862.525C399.426 862.502 399.511 862.457 399.605 862.406C399.775 862.316 399.976 862.209 400.582 862.184C400.684 862.179 400.795 862.176 400.909 862.172C401.366 862.158 401.878 862.142 402.07 862.07C402.29 861.986 402.243 861.89 402.188 861.778C402.117 861.632 402.032 861.459 402.506 861.25C402.6 861.209 402.78 861.195 402.915 861.184C403.01 861.177 403.083 861.171 403.091 861.158C403.099 861.144 403.069 861.114 403.03 861.077C402.893 860.944 402.655 860.713 403.648 860.703C403.916 860.701 404.223 860.712 404.499 860.722C404.905 860.736 405.242 860.748 405.287 860.71C405.304 860.696 405.316 860.681 405.326 860.664C405.649 860.669 405.972 860.674 406.295 860.678C406.71 860.723 407.292 860.719 408.018 860.714C408.194 860.713 408.38 860.712 408.573 860.711C409.211 860.721 409.848 860.73 410.486 860.739C410.992 860.759 411.53 860.79 412.098 860.839C413.235 860.938 414.226 861.102 415.193 861.262C415.6 861.329 416.004 861.396 416.414 861.457C416.254 861.465 416.11 861.474 416 861.486C415.241 861.569 414.936 861.734 414.656 861.885C414.47 861.986 414.294 862.081 414.003 862.142C413.47 862.254 413.524 862.385 413.563 862.482C413.583 862.532 413.599 862.574 413.528 862.598C413.471 862.618 413.338 862.627 413.202 862.636C413.083 862.645 412.96 862.654 412.882 862.669C411.929 862.861 412.216 862.973 412.632 863.135C412.862 863.224 413.131 863.329 413.254 863.472C413.36 863.623 413.324 863.667 412.825 863.727C413.214 863.801 413.603 863.876 413.992 863.95C414.145 863.946 414.261 863.899 414.423 863.822C414.714 863.683 415.66 863.633 416.399 863.593C416.742 863.575 417.039 863.559 417.208 863.538C418.102 863.425 417.842 863.268 417.613 863.13C417.487 863.054 417.371 862.984 417.461 862.93C417.5 862.907 417.445 862.884 417.389 862.86C417.346 862.842 417.302 862.824 417.3 862.805C417.289 862.667 417.818 862.565 418.309 862.471C418.59 862.416 418.858 862.364 419.006 862.309C419.051 862.293 419.087 862.276 419.121 862.259C419.17 862.235 419.218 862.212 419.293 862.192C419.464 862.147 419.816 862.117 420.201 862.084C420.399 862.067 420.606 862.049 420.801 862.028C421.054 862.001 421.145 861.947 421.241 861.89C421.309 861.85 421.38 861.809 421.511 861.775C421.748 861.713 422.227 861.691 422.671 861.67C422.865 861.661 423.052 861.652 423.21 861.641C423.274 861.636 423.305 861.627 423.312 861.614C424.041 861.571 424.737 861.527 425.415 861.484C428.814 861.268 431.755 861.081 436.148 861.216C436.979 861.242 437.871 861.237 438.772 861.216C441.655 861.27 444.539 861.326 447.421 861.383C447.992 861.507 448.69 861.611 449.516 861.693C451.067 861.846 452.663 861.879 454.546 861.917C455.881 861.945 457.36 861.975 459.07 862.054C459.142 862.057 459.214 862.06 459.287 862.063C462.213 862.188 465.258 861.984 468.583 861.205C471.907 860.451 475.54 858.946 477.944 857.579C479.26 856.848 480.652 856.08 481.909 855.284C483.68 854.17 485.18 852.999 485.876 852.068C486.099 851.771 486.277 851.449 486.445 851.134C486.565 850.91 486.681 850.689 486.804 850.483C487.246 850.043 487.678 849.591 488.098 849.13C488.921 848.377 490.115 847.096 490.936 845.627C491.312 845.102 491.676 844.567 492.016 844.041C492.755 842.895 493.421 841.733 494.031 840.527C494.23 840.134 494.424 839.733 494.612 839.327C494.614 839.323 494.616 839.32 494.618 839.316C494.995 838.501 495.348 837.661 495.665 836.829C495.801 836.471 495.932 836.111 496.057 835.749C496.376 834.832 496.663 833.889 496.908 832.959C497.039 832.466 497.162 831.96 497.273 831.458C497.455 830.641 497.612 829.806 497.741 828.975C497.951 827.625 498.089 826.271 498.158 824.913C498.169 824.69 498.193 824.475 498.225 824.317C498.258 824.159 498.298 824.07 498.339 824.07C498.38 824.07 498.42 824.161 498.45 824.321C498.481 824.48 498.499 824.697 498.501 824.922C498.511 826.295 498.45 827.672 498.315 829.052C498.233 829.902 498.121 830.758 497.983 831.6C497.898 832.117 497.801 832.639 497.697 833.149C497.499 834.111 497.258 835.093 496.984 836.049C496.876 836.427 496.762 836.803 496.643 837.177C496.364 838.051 496.047 838.936 495.702 839.798C495.7 839.803 495.698 839.808 495.696 839.814C495.526 840.239 495.349 840.66 495.167 841.074C494.604 842.351 493.979 843.59 493.274 844.819C492.91 845.455 492.512 846.106 492.097 846.742C491.866 847.096 491.631 847.445 491.394 847.785C491.264 847.971 491.131 848.158 490.996 848.345C487.891 852.639 483.942 856.308 479.368 859.104C474.814 861.893 469.662 863.77 464.341 864.564C462.593 864.826 460.842 864.973 459.07 865.009C455.569 865.082 452.07 865.152 448.568 865.221C415.559 865.871 382.417 866.403 349.261 866.737C344.532 866.785 339.68 866.828 334.941 866.866C330.15 866.905 325.458 866.939 320.656 866.969C319.197 866.978 317.702 866.987 316.167 866.995Z" fill="white"/>
<path d="M291.003 641.606C290.964 640.582 291.333 639.595 291.334 638.567C291.335 637.29 290.982 635.993 291.048 634.713C291.113 633.441 291.208 632.162 291.324 630.888C291.44 629.612 291.578 628.338 291.732 627.061C291.885 625.788 292.053 624.511 292.229 623.236C292.349 622.37 292.472 621.503 292.597 620.638C292.652 620.258 292.707 619.879 292.763 619.499C292.804 619.215 292.845 618.932 292.887 618.648C292.893 618.609 292.916 618.571 292.954 618.543C292.991 618.516 293.04 618.5 293.089 618.5C293.139 618.5 293.187 618.516 293.225 618.544C293.262 618.572 293.285 618.61 293.291 618.649C293.331 618.935 293.371 619.221 293.411 619.506C293.456 619.824 293.5 620.141 293.544 620.458C293.34 620.508 293.185 620.577 293.117 620.705C293.082 620.771 293.067 620.866 293.105 620.937C293.139 621 293.2 621.048 293.258 621.093C293.319 621.14 293.376 621.185 293.397 621.243C293.431 621.341 293.518 621.434 293.609 621.532C293.642 621.568 293.676 621.604 293.708 621.641C293.749 621.944 293.791 622.247 293.831 622.55C293.81 622.667 293.792 622.775 293.8 622.866C293.808 622.948 293.851 623.023 293.905 623.097C293.911 623.144 293.917 623.191 293.923 623.238C293.964 623.541 294.003 623.843 294.042 624.146C293.988 624.382 293.935 624.63 293.912 624.952C293.902 625.091 293.872 625.228 293.844 625.359C293.802 625.554 293.763 625.736 293.792 625.897C293.812 626.004 293.783 626.117 293.754 626.229C293.716 626.38 293.677 626.53 293.756 626.667C293.805 626.753 293.865 626.832 293.921 626.905C294.01 627.021 294.087 627.122 294.093 627.214C294.103 627.387 294.167 627.536 294.224 627.668C294.293 627.826 294.35 627.959 294.288 628.076C294.279 628.093 294.266 628.114 294.252 628.136C294.177 628.257 294.058 628.449 294.124 628.725C294.147 628.823 294.208 628.915 294.268 629.005C294.355 629.137 294.439 629.265 294.401 629.401C294.396 629.422 294.372 629.443 294.351 629.462C294.323 629.487 294.299 629.509 294.32 629.522C294.381 629.559 294.448 629.619 294.522 629.683C294.576 629.731 294.633 629.781 294.693 629.827C294.726 630.182 294.759 630.536 294.79 630.891C294.804 631.053 294.817 631.215 294.831 631.378C294.739 631.461 294.656 631.546 294.594 631.636C294.512 631.753 294.487 631.905 294.455 632.101C294.431 632.246 294.403 632.414 294.346 632.609C294.24 632.972 294.264 633.344 294.32 633.582C294.332 633.633 294.345 633.683 294.359 633.738C294.412 633.943 294.478 634.2 294.551 634.687C294.62 635.148 294.638 635.54 294.652 635.835C294.659 635.985 294.664 636.11 294.675 636.206C294.693 636.37 294.71 636.571 294.726 636.773C294.752 637.089 294.777 637.407 294.812 637.587C294.824 637.651 294.839 637.719 294.855 637.791C294.9 637.993 294.953 638.236 294.985 638.571C295.017 638.923 294.995 639.141 294.947 639.367C294.927 639.459 294.849 639.541 294.769 639.624C294.655 639.743 294.535 639.867 294.571 640.034C294.579 640.073 294.598 640.115 294.617 640.159C294.653 640.239 294.692 640.326 294.675 640.415C294.669 640.446 294.648 640.473 294.627 640.5C294.604 640.529 294.582 640.558 294.581 640.591C294.576 640.713 294.581 640.831 294.586 640.937C294.592 641.073 294.597 641.187 294.579 641.258C294.546 641.384 294.575 641.522 294.605 641.662C294.628 641.769 294.652 641.877 294.647 641.981C294.635 642.279 294.691 642.69 294.785 643.113C294.82 643.273 294.772 643.408 294.71 643.582C294.671 643.69 294.627 643.813 294.595 643.965C294.576 644.052 294.619 644.125 294.659 644.193C294.696 644.255 294.73 644.313 294.711 644.373C294.694 644.425 294.621 644.459 294.552 644.49C294.476 644.525 294.404 644.558 294.418 644.613C294.425 644.643 294.462 644.678 294.505 644.721C294.522 644.738 294.54 644.756 294.558 644.775C294.543 644.774 294.53 644.773 294.52 644.773C294.45 644.773 294.413 644.83 294.376 644.885C294.362 644.907 294.348 644.929 294.331 644.947C294.271 645.013 294.261 645.139 294.264 645.235C294.265 645.276 294.244 645.313 294.218 645.356C294.196 645.394 294.17 645.437 294.155 645.492C294.147 645.523 294.126 645.547 294.109 645.567C294.097 645.582 294.087 645.594 294.084 645.605C294.081 645.615 294.102 645.623 294.124 645.632C294.141 645.638 294.158 645.645 294.17 645.654C294.197 645.674 294.206 645.701 294.197 645.719C294.193 645.728 294.185 645.735 294.177 645.741C294.168 645.749 294.159 645.757 294.156 645.768C294.141 645.817 294.164 645.864 294.188 645.914C294.214 645.968 294.241 646.025 294.221 646.088C294.215 646.108 294.2 646.13 294.186 646.15C294.171 646.172 294.156 646.192 294.153 646.21C294.137 646.282 294.187 646.35 294.233 646.412C294.264 646.454 294.293 646.493 294.3 646.529C294.312 646.596 294.372 646.632 294.417 646.658C294.44 646.672 294.459 646.683 294.464 646.694C294.463 646.705 294.461 646.716 294.459 646.727C294.454 646.736 294.45 646.746 294.451 646.756C294.451 646.757 294.451 646.757 294.452 646.758C294.437 646.817 294.416 646.876 294.396 646.934C294.349 647.065 294.303 647.193 294.329 647.33C294.335 647.359 294.359 647.389 294.385 647.419C294.416 647.457 294.448 647.495 294.445 647.534C294.44 647.626 294.399 647.72 294.358 647.812C294.297 647.95 294.238 648.086 294.303 648.21C294.325 648.251 294.361 648.291 294.397 648.331C294.417 648.354 294.437 648.376 294.455 648.399C294.422 648.394 294.391 648.392 294.362 648.389C294.303 648.384 294.252 648.38 294.208 648.358C294.106 648.307 293.965 648.248 293.863 648.255C293.835 648.257 293.804 648.255 293.772 648.254C293.694 648.25 293.614 648.246 293.578 648.294C293.553 648.326 293.497 648.409 293.557 648.461C293.57 648.473 293.596 648.48 293.625 648.488C293.677 648.502 293.738 648.518 293.752 648.568C293.755 648.577 293.757 648.586 293.759 648.595C293.767 648.633 293.776 648.675 293.817 648.691C293.865 648.709 293.92 648.705 293.984 648.701C294.067 648.695 294.166 648.688 294.285 648.727C294.309 648.735 294.317 648.749 294.323 648.761C294.327 648.769 294.331 648.775 294.338 648.775C294.346 648.776 294.363 648.773 294.385 648.77C294.46 648.759 294.592 648.739 294.598 648.821C294.6 648.843 294.593 648.869 294.588 648.891C294.579 648.925 294.572 648.953 294.594 648.956C294.602 648.958 294.611 648.959 294.62 648.959C294.618 648.986 294.615 649.013 294.612 649.039C294.587 649.074 294.589 649.122 294.592 649.181C294.592 649.196 294.593 649.211 294.593 649.227C294.588 649.28 294.583 649.332 294.577 649.385C294.566 649.427 294.549 649.471 294.52 649.518C294.464 649.612 294.37 649.693 294.279 649.773C294.24 649.807 294.202 649.84 294.167 649.874C294.163 649.861 294.158 649.849 294.151 649.84C294.103 649.777 294.009 649.752 293.923 649.729C293.865 649.714 293.811 649.699 293.776 649.675C293.712 649.631 293.637 649.636 293.582 649.639C293.553 649.64 293.529 649.642 293.515 649.636C293.504 649.631 293.499 649.62 293.493 649.609C293.489 649.599 293.484 649.589 293.475 649.583C293.365 649.504 293.301 649.528 293.208 649.562C293.157 649.581 293.097 649.603 293.016 649.613C292.93 649.622 292.905 649.619 292.87 649.578C292.828 649.61 292.785 649.642 292.742 649.674C292.745 649.687 292.772 649.696 292.816 649.71C292.895 649.734 292.924 649.812 292.946 649.873C292.957 649.901 292.966 649.926 292.978 649.939C293.043 650.013 293.132 649.992 293.211 649.973C293.255 649.962 293.295 649.953 293.326 649.96C293.339 649.963 293.352 649.959 293.365 649.954C293.376 649.951 293.386 649.947 293.397 649.947C293.476 649.946 293.534 649.99 293.588 650.03C293.619 650.053 293.649 650.075 293.68 650.088C293.69 650.091 293.7 650.094 293.709 650.097C293.723 650.101 293.736 650.105 293.747 650.111C293.773 650.125 293.79 650.154 293.809 650.186C293.819 650.203 293.829 650.22 293.841 650.236C293.856 650.257 293.887 650.264 293.92 650.272C293.943 650.278 293.966 650.284 293.986 650.294C294.021 650.314 294.034 650.353 294.046 650.39C294.051 650.406 294.056 650.421 294.062 650.434C294.065 650.44 294.07 650.442 294.078 650.443C294.102 650.503 294.127 650.56 294.152 650.616C294.275 650.897 294.382 651.139 294.305 651.501C294.29 651.57 294.293 651.643 294.305 651.718C294.274 651.956 294.242 652.193 294.21 652.431C294.139 652.478 294.079 652.536 294.033 652.604C293.945 652.732 293.926 652.863 293.904 653.019C293.888 653.134 293.87 653.261 293.82 653.41C293.738 653.66 293.668 653.917 293.631 654.207C293.595 654.496 293.568 654.826 293.559 655.06C293.554 655.188 293.49 655.321 293.431 655.446C293.349 655.622 293.274 655.779 293.382 655.875C293.416 655.906 293.476 655.936 293.534 655.964C293.576 655.985 293.616 656.005 293.646 656.025C293.637 656.078 293.628 656.131 293.618 656.184C293.546 656.278 293.469 656.424 293.549 656.566C293.539 656.62 293.53 656.675 293.52 656.728C293.499 656.843 293.478 656.956 293.456 657.069C293.449 657.106 293.442 657.144 293.435 657.181C293.435 657.182 293.435 657.182 293.435 657.182C293.421 657.258 293.406 657.334 293.392 657.409C293.386 657.441 293.379 657.473 293.373 657.505C293.358 657.587 293.342 657.669 293.326 657.75C293.317 657.793 293.309 657.836 293.301 657.879C293.287 657.949 293.273 658.02 293.259 658.09C293.236 658.204 293.213 658.317 293.19 658.43C293.187 658.449 293.175 658.466 293.157 658.48C293.138 658.493 293.116 658.5 293.092 658.5C293.069 658.5 293.046 658.493 293.028 658.479C293.01 658.466 292.998 658.448 292.994 658.43C292.972 658.317 292.95 658.203 292.928 658.09C292.914 658.019 292.901 657.949 292.887 657.879C292.879 657.835 292.871 657.792 292.863 657.749C292.847 657.669 292.832 657.586 292.817 657.505C292.811 657.473 292.805 657.441 292.799 657.409C292.784 657.333 292.771 657.257 292.757 657.181C292.757 657.181 292.756 657.18 292.756 657.18C292.75 657.143 292.743 657.105 292.736 657.068C292.715 656.955 292.695 656.842 292.674 656.727C292.664 656.667 292.653 656.605 292.642 656.544C292.636 656.509 292.63 656.475 292.624 656.442C292.621 656.423 292.618 656.405 292.615 656.386C292.54 655.956 292.468 655.53 292.398 655.099C292.329 654.671 292.263 654.241 292.199 653.813C292.136 653.383 292.075 652.955 292.016 652.526C291.645 649.803 291.341 647.07 291.15 644.336C291.123 643.946 291.098 643.546 291.076 643.155C291.054 642.76 291.035 642.373 291.018 641.977C291.013 641.856 291.008 641.733 291.003 641.606Z" fill="white"/>
<path d="M422.003 641.606C421.964 640.582 422.333 639.595 422.334 638.567C422.335 637.29 421.982 635.993 422.048 634.713C422.113 633.441 422.208 632.162 422.324 630.888C422.44 629.612 422.578 628.338 422.732 627.061C422.885 625.788 423.053 624.511 423.229 623.236C423.349 622.37 423.472 621.503 423.597 620.638C423.652 620.258 423.707 619.879 423.763 619.499C423.804 619.215 423.845 618.932 423.887 618.648C423.893 618.609 423.916 618.571 423.954 618.543C423.991 618.516 424.04 618.5 424.089 618.5C424.139 618.5 424.187 618.516 424.225 618.544C424.262 618.572 424.285 618.61 424.291 618.649C424.331 618.935 424.371 619.221 424.411 619.506C424.456 619.824 424.5 620.141 424.544 620.458C424.34 620.508 424.185 620.577 424.117 620.705C424.082 620.771 424.067 620.866 424.105 620.937C424.139 621 424.2 621.048 424.258 621.093C424.319 621.14 424.376 621.185 424.397 621.243C424.431 621.341 424.518 621.434 424.609 621.532C424.642 621.568 424.676 621.604 424.708 621.641C424.749 621.944 424.791 622.247 424.831 622.55C424.81 622.667 424.792 622.775 424.8 622.866C424.808 622.948 424.851 623.023 424.905 623.097C424.911 623.144 424.917 623.191 424.923 623.238C424.964 623.541 425.003 623.843 425.042 624.146C424.988 624.382 424.935 624.63 424.912 624.952C424.902 625.091 424.872 625.228 424.844 625.359C424.802 625.554 424.763 625.736 424.792 625.897C424.812 626.004 424.783 626.117 424.754 626.229C424.716 626.38 424.677 626.53 424.756 626.667C424.805 626.753 424.865 626.832 424.921 626.905C425.01 627.021 425.087 627.122 425.093 627.214C425.103 627.387 425.167 627.536 425.224 627.668C425.293 627.826 425.35 627.959 425.288 628.076C425.279 628.093 425.266 628.114 425.252 628.136C425.177 628.257 425.058 628.449 425.124 628.725C425.147 628.823 425.208 628.915 425.268 629.005C425.355 629.137 425.439 629.265 425.401 629.401C425.396 629.422 425.372 629.443 425.351 629.462C425.323 629.487 425.299 629.509 425.32 629.522C425.381 629.559 425.448 629.619 425.522 629.683C425.576 629.731 425.633 629.781 425.693 629.827C425.726 630.182 425.759 630.536 425.79 630.891C425.804 631.053 425.817 631.215 425.831 631.378C425.739 631.461 425.656 631.546 425.594 631.636C425.512 631.753 425.487 631.905 425.455 632.101C425.431 632.246 425.403 632.414 425.346 632.609C425.24 632.972 425.264 633.344 425.32 633.582C425.332 633.633 425.345 633.683 425.359 633.738C425.412 633.943 425.478 634.2 425.551 634.687C425.62 635.148 425.638 635.54 425.652 635.835C425.659 635.985 425.664 636.11 425.675 636.206C425.693 636.37 425.71 636.571 425.726 636.773C425.752 637.089 425.777 637.407 425.812 637.587C425.824 637.651 425.839 637.719 425.855 637.791C425.9 637.993 425.953 638.236 425.985 638.571C426.017 638.923 425.995 639.141 425.947 639.367C425.927 639.459 425.849 639.541 425.769 639.624C425.655 639.743 425.535 639.867 425.571 640.034C425.579 640.073 425.598 640.115 425.617 640.159C425.653 640.239 425.692 640.326 425.675 640.415C425.669 640.446 425.648 640.473 425.627 640.5C425.604 640.529 425.582 640.558 425.581 640.591C425.576 640.713 425.581 640.831 425.586 640.937C425.592 641.073 425.597 641.187 425.579 641.258C425.546 641.384 425.575 641.522 425.605 641.662C425.628 641.769 425.652 641.877 425.647 641.981C425.635 642.279 425.691 642.69 425.785 643.113C425.82 643.273 425.772 643.408 425.71 643.582C425.671 643.69 425.627 643.813 425.595 643.965C425.576 644.052 425.619 644.125 425.659 644.193C425.696 644.255 425.73 644.313 425.711 644.373C425.694 644.425 425.621 644.459 425.552 644.49C425.476 644.525 425.404 644.558 425.418 644.613C425.425 644.643 425.462 644.678 425.505 644.721C425.522 644.738 425.54 644.756 425.558 644.775C425.543 644.774 425.53 644.773 425.52 644.773C425.45 644.773 425.413 644.83 425.376 644.885C425.362 644.907 425.348 644.929 425.331 644.947C425.271 645.013 425.261 645.139 425.264 645.235C425.265 645.276 425.244 645.313 425.218 645.356C425.196 645.394 425.17 645.437 425.155 645.492C425.147 645.523 425.126 645.547 425.109 645.567C425.097 645.582 425.087 645.594 425.084 645.605C425.081 645.615 425.102 645.623 425.124 645.632C425.141 645.638 425.158 645.645 425.17 645.654C425.197 645.674 425.206 645.701 425.197 645.719C425.193 645.728 425.185 645.735 425.177 645.741C425.168 645.749 425.159 645.757 425.156 645.768C425.141 645.817 425.164 645.864 425.188 645.914C425.214 645.968 425.241 646.025 425.221 646.088C425.215 646.108 425.2 646.13 425.186 646.15C425.171 646.172 425.156 646.192 425.153 646.21C425.137 646.282 425.187 646.35 425.233 646.412C425.264 646.454 425.293 646.493 425.3 646.529C425.312 646.596 425.372 646.632 425.417 646.658C425.44 646.672 425.459 646.683 425.464 646.694C425.463 646.705 425.461 646.716 425.459 646.727C425.454 646.736 425.45 646.746 425.451 646.756C425.451 646.757 425.451 646.757 425.452 646.758C425.437 646.817 425.416 646.876 425.396 646.934C425.349 647.065 425.303 647.193 425.329 647.33C425.335 647.359 425.359 647.389 425.385 647.419C425.416 647.457 425.448 647.495 425.445 647.534C425.44 647.626 425.399 647.72 425.358 647.812C425.297 647.95 425.238 648.086 425.303 648.21C425.325 648.251 425.361 648.291 425.397 648.331C425.417 648.354 425.437 648.376 425.455 648.399C425.422 648.394 425.391 648.392 425.362 648.389C425.303 648.384 425.252 648.38 425.208 648.358C425.106 648.307 424.965 648.248 424.863 648.255C424.835 648.257 424.804 648.255 424.772 648.254C424.694 648.25 424.614 648.246 424.578 648.294C424.553 648.326 424.497 648.409 424.557 648.461C424.57 648.473 424.596 648.48 424.625 648.488C424.677 648.502 424.738 648.518 424.752 648.568C424.755 648.577 424.757 648.586 424.759 648.595C424.767 648.633 424.776 648.675 424.817 648.691C424.865 648.709 424.92 648.705 424.984 648.701C425.067 648.695 425.166 648.688 425.285 648.727C425.309 648.735 425.317 648.749 425.323 648.761C425.327 648.769 425.331 648.775 425.338 648.775C425.346 648.776 425.363 648.773 425.385 648.77C425.46 648.759 425.592 648.739 425.598 648.821C425.6 648.843 425.593 648.869 425.588 648.891C425.579 648.925 425.572 648.953 425.594 648.956C425.602 648.958 425.611 648.959 425.62 648.959C425.618 648.986 425.615 649.013 425.612 649.039C425.587 649.074 425.589 649.122 425.592 649.181C425.592 649.196 425.593 649.211 425.593 649.227C425.588 649.28 425.583 649.332 425.577 649.385C425.566 649.427 425.549 649.471 425.52 649.518C425.464 649.612 425.37 649.693 425.279 649.773C425.24 649.807 425.202 649.84 425.167 649.874C425.163 649.861 425.158 649.849 425.151 649.84C425.103 649.777 425.009 649.752 424.923 649.729C424.865 649.714 424.811 649.699 424.776 649.675C424.712 649.631 424.637 649.636 424.582 649.639C424.553 649.64 424.529 649.642 424.515 649.636C424.504 649.631 424.499 649.62 424.493 649.609C424.489 649.599 424.484 649.589 424.475 649.583C424.365 649.504 424.301 649.528 424.208 649.562C424.157 649.581 424.097 649.603 424.016 649.613C423.93 649.622 423.905 649.619 423.87 649.578C423.828 649.61 423.785 649.642 423.742 649.674C423.745 649.687 423.772 649.696 423.816 649.71C423.895 649.734 423.924 649.812 423.946 649.873C423.957 649.901 423.966 649.926 423.978 649.939C424.043 650.013 424.132 649.992 424.211 649.973C424.255 649.962 424.295 649.953 424.326 649.96C424.339 649.963 424.352 649.959 424.365 649.954C424.376 649.951 424.386 649.947 424.397 649.947C424.476 649.946 424.534 649.99 424.588 650.03C424.619 650.053 424.649 650.075 424.68 650.088C424.69 650.091 424.7 650.094 424.709 650.097C424.723 650.101 424.736 650.105 424.747 650.111C424.773 650.125 424.79 650.154 424.809 650.186C424.819 650.203 424.829 650.22 424.841 650.236C424.856 650.257 424.887 650.264 424.92 650.272C424.943 650.278 424.966 650.284 424.986 650.294C425.021 650.314 425.034 650.353 425.046 650.39C425.051 650.406 425.056 650.421 425.062 650.434C425.065 650.44 425.07 650.442 425.078 650.443C425.102 650.503 425.127 650.56 425.152 650.616C425.275 650.897 425.382 651.139 425.305 651.501C425.29 651.57 425.293 651.643 425.305 651.718C425.274 651.956 425.242 652.193 425.21 652.431C425.139 652.478 425.079 652.536 425.033 652.604C424.945 652.732 424.926 652.863 424.904 653.019C424.888 653.134 424.87 653.261 424.82 653.41C424.738 653.66 424.668 653.917 424.631 654.207C424.595 654.496 424.568 654.826 424.559 655.06C424.554 655.188 424.49 655.321 424.431 655.446C424.349 655.622 424.274 655.779 424.382 655.875C424.416 655.906 424.476 655.936 424.534 655.964C424.576 655.985 424.616 656.005 424.646 656.025C424.637 656.078 424.628 656.131 424.618 656.184C424.546 656.278 424.469 656.424 424.549 656.566C424.539 656.62 424.53 656.675 424.52 656.728C424.499 656.843 424.478 656.956 424.456 657.069C424.449 657.106 424.442 657.144 424.435 657.181C424.435 657.182 424.435 657.182 424.435 657.182C424.421 657.258 424.406 657.334 424.392 657.409C424.386 657.441 424.379 657.473 424.373 657.505C424.358 657.587 424.342 657.669 424.326 657.75C424.317 657.793 424.309 657.836 424.301 657.879C424.287 657.949 424.273 658.02 424.259 658.09C424.236 658.204 424.213 658.317 424.19 658.43C424.187 658.449 424.175 658.466 424.157 658.48C424.138 658.493 424.116 658.5 424.092 658.5C424.069 658.5 424.046 658.493 424.028 658.479C424.01 658.466 423.998 658.448 423.994 658.43C423.972 658.317 423.95 658.203 423.928 658.09C423.914 658.019 423.901 657.949 423.887 657.879C423.879 657.835 423.871 657.792 423.863 657.749C423.847 657.669 423.832 657.586 423.817 657.505C423.811 657.473 423.805 657.441 423.799 657.409C423.784 657.333 423.771 657.257 423.757 657.181C423.757 657.181 423.756 657.18 423.756 657.18C423.75 657.143 423.743 657.105 423.736 657.068C423.715 656.955 423.695 656.842 423.674 656.727C423.664 656.667 423.653 656.605 423.642 656.544C423.636 656.509 423.63 656.475 423.624 656.442C423.621 656.423 423.618 656.405 423.615 656.386C423.54 655.956 423.468 655.53 423.398 655.099C423.329 654.671 423.263 654.241 423.199 653.813C423.136 653.383 423.075 652.955 423.016 652.526C422.645 649.803 422.341 647.07 422.15 644.336C422.123 643.946 422.098 643.546 422.076 643.155C422.054 642.76 422.035 642.373 422.018 641.977C422.013 641.856 422.008 641.733 422.003 641.606Z" fill="white"/>
<rect x="293" y="566.5" width="16" height="38" rx="8" fill="#E2E9F6" stroke="#8B2F32" stroke-width="5"/>
<circle cx="301" cy="567.5" r="20.5" fill="#E14753" stroke="#8B2F32" stroke-width="5"/>
<path d="M419.589 570.025C422.811 570.224 425.655 571.551 427.964 573.321C430.268 575.088 432.119 577.355 433.401 579.61C434.658 581.819 435.5 584.251 435.5 586.378C435.5 590.892 431.942 594.321 427.685 596.474C423.286 598.697 417.383 600 411 600C404.617 600 398.714 598.697 394.315 596.474C390.058 594.321 386.5 590.892 386.5 586.378C386.5 584.305 387.227 581.973 388.399 579.827C389.589 577.651 391.333 575.488 393.573 573.793C397.899 570.519 403.943 569.11 410.837 572.364C413.787 570.563 416.749 569.85 419.589 570.025Z" fill="#E14753" stroke="#8B2F32" stroke-width="5"/>
<path d="M411 565C415.446 565 419.595 565.896 422.725 567.461C425.705 568.951 428.5 571.472 428.5 575C428.5 578.528 425.705 581.049 422.725 582.539C419.595 584.104 415.446 585 411 585C406.554 585 402.405 584.104 399.275 582.539C396.295 581.049 393.5 578.528 393.5 575C393.5 571.472 396.295 568.951 399.275 567.461C402.405 565.896 406.554 565 411 565Z" fill="#F4757F" stroke="#8B2F32" stroke-width="5"/>
<g class="bulb-row-1">
<ellipse cx="13" cy="12.5" rx="13" ry="12.5" transform="matrix(1 0 0 -1 497 259.5)" fill="#97AAFF" stroke="#8B2F32" stroke-width="5"/>
<circle class="bulb-light" cx="21.5" cy="21.5" r="21.5" transform="matrix(1 0 0 -1 506 259.5)" stroke="#8B2F32" stroke-width="5"/>
<circle cx="9" cy="9" r="9" transform="matrix(-1 0 0 1 542.088 225.5)" fill="#FEFCF4"/>
<ellipse cx="44.0879" cy="247" rx="13" ry="12.5" transform="rotate(180 44.0879 247)" fill="#97AAFF" stroke="#8B2F32" stroke-width="5"/>
<circle class="bulb-light" cx="26.5879" cy="238" r="21.5" transform="rotate(180 26.5879 238)" stroke="#8B2F32" stroke-width="5"/>
<circle cx="21" cy="234.5" r="9" fill="#FEFCF4"/>
</g>
<g class="bulb-row-2">
<ellipse cx="13" cy="12.5" rx="13" ry="12.5" transform="matrix(0.979944 0.199275 0.199275 -0.979944 493.237 345.888)" fill="#97AAFF" stroke="#8B2F32" stroke-width="5"/>
<circle class="bulb-light" cx="21.5" cy="21.5" r="21.5" transform="matrix(0.979944 0.199275 0.199275 -0.979944 502.057 347.681)" stroke="#8B2F32" stroke-width="5"/>
<circle cx="9" cy="9" r="9" transform="matrix(-1 0 0 1 542.088 321.5)" fill="#FEFCF4"/>
<ellipse cx="45.6206" cy="336.229" rx="13" ry="12.5" transform="rotate(168.505 45.6206 336.229)" fill="#97AAFF" stroke="#8B2F32" stroke-width="5"/>
<circle class="bulb-light" cx="26.678" cy="330.897" r="21.5" transform="rotate(168.505 26.678 330.897)" stroke="#8B2F32" stroke-width="5"/>
<circle cx="21" cy="330.5" r="9" fill="#FEFCF4"/>
</g>
<g class="bulb-row-3">
<ellipse cx="507.96" cy="417.123" rx="13" ry="12.5" transform="rotate(-16.7275 507.96 417.123)" fill="#97AAFF" stroke="#8B2F32" stroke-width="5"/>
<circle class="bulb-light" cx="527.31" cy="420.705" r="21.5" transform="rotate(-16.7275 527.31 420.705)" stroke="#8B2F32" stroke-width="5"/>
<circle cx="9" cy="9" r="9" transform="matrix(-1 0 0 1 542.088 408.5)" fill="#FEFCF4"/>
<ellipse cx="13" cy="12.5" rx="13" ry="12.5" transform="matrix(-0.957685 -0.28782 -0.28782 0.957685 62.1758 408.894)" fill="#97AAFF" stroke="#8B2F32" stroke-width="5"/>
<circle class="bulb-light" cx="21.5" cy="21.5" r="21.5" transform="matrix(-0.957685 -0.28782 -0.28782 0.957685 53.5566 406.303)" stroke="#8B2F32" stroke-width="5"/>
<circle cx="21" cy="417.5" r="9" fill="#FEFCF4"/>
</g>
<g class="bulb-row-4">
<ellipse cx="509" cy="505" rx="13" ry="12.5" fill="#97AAFF" stroke="#8B2F32" stroke-width="5"/>
<circle class="bulb-light" cx="526.5" cy="514" r="21.5" stroke="#8B2F32" stroke-width="5"/>
<circle cx="9" cy="9" r="9" transform="matrix(-1 0 0 1 542.088 500.5)" fill="#FEFCF4"/>
<ellipse cx="13" cy="12.5" rx="13" ry="12.5" transform="matrix(-1 0 0 1 58.0879 492.5)" fill="#97AAFF" stroke="#8B2F32" stroke-width="5"/>
<circle class="bulb-light" cx="21.5" cy="21.5" r="21.5" transform="matrix(-1 0 0 1 49.0879 492.5)" stroke="#8B2F32" stroke-width="5"/>
<circle cx="21" cy="509.5" r="9" fill="#FEFCF4"/>
</g>
<mask id="mask0_221_1539" style="mask-type:alpha" maskUnits="userSpaceOnUse" x="93" y="207" width="370" height="308">
<path d="M448 207.5C456.284 207.5 463 214.216 463 222.5V499.5C463 507.784 456.284 514.5 448 514.5H108C99.7157 514.5 93 507.784 93 499.5V222.5C93 214.216 99.7157 207.5 108 207.5H448Z" fill="#FEE0EC"/>
</mask>
<g mask="url(#mask0_221_1539)">
<path d="M182 926.5H46L363 146.5H499L182 926.5ZM333 926.5H197L514 146.5H650L333 926.5Z" fill="white" fill-opacity="0.41"/>
</g>
<path d="M139 157.712C139 131.839 155.522 108.533 180.506 101.808C251.148 82.7954 303.941 82.6352 376.283 101.9C401.367 108.58 418 131.931 418 157.89V202.869C418 212.81 409.941 220.869 400 220.869H157C147.059 220.869 139 212.81 139 202.869V157.712Z" fill="#FCF49A" stroke="#8B2F32" stroke-width="5"/>
<mask id="mask1_221_1539" style="mask-type:alpha" maskUnits="userSpaceOnUse" x="142" y="90" width="273" height="128">
<path d="M181.285 104.705C251.415 85.8302 303.673 85.6685 375.511 104.799C399.18 111.102 415 133.182 415 157.89V202.869C415 211.153 408.284 217.869 400 217.869H157C148.845 217.869 142.21 211.361 142.005 203.256L142 202.869V157.712C142 133.085 157.715 111.049 181.285 104.705Z" fill="#FCF49A"/>
</mask>
<g mask="url(#mask1_221_1539)">
<path d="M135.159 239.129L109.893 229.608L199.647 -8.55065L224.912 0.970999L135.159 239.129ZM176.177 252.885L150.912 243.363L240.666 5.20384L265.932 14.7255L176.177 252.885ZM217.197 266.638L191.931 257.117L281.686 18.9574L306.951 28.4791L217.197 266.638ZM258.216 280.392L232.951 270.87L322.705 32.711L347.97 42.2327L258.216 280.392ZM299.235 294.145L273.969 284.624L363.724 46.4642L388.989 55.9859L299.235 294.145ZM340.255 307.898L314.989 298.376L404.743 60.2169L430.009 69.7386L340.255 307.898ZM381.274 321.652L356.009 312.13L445.763 73.9705L471.028 83.4921L381.274 321.652Z" fill="#FFDB94"/>
</g>
<path d="M156 168.436C156 141.872 173.39 118.056 199.291 112.16C255.736 99.3108 299.769 99.2204 357.52 112.247C383.509 118.109 401 141.96 401 168.602V189.5C401 199.441 392.941 207.5 383 207.5H174C164.059 207.5 156 199.441 156 189.5V168.436Z" fill="#CAB9ED"/>
<path d="M258.375 139.45C257.542 139.45 256.908 139.175 256.475 138.625C256.042 138.075 255.742 137.258 255.575 136.175C255.425 135.075 255.35 133.717 255.35 132.1C255.35 131.517 255.358 130.967 255.375 130.45C255.392 129.933 255.408 129.45 255.425 129C253.425 128.9 251.958 128.617 251.025 128.15C250.092 127.683 249.625 126.875 249.625 125.725C249.625 124.292 250.35 123.325 251.8 122.825C253.267 122.325 255.467 122.075 258.4 122.075C261.35 122.075 263.567 122.325 265.05 122.825C266.55 123.325 267.3 124.292 267.3 125.725C267.3 126.858 266.825 127.667 265.875 128.15C264.942 128.617 263.483 128.9 261.5 129C261.533 129.45 261.558 129.933 261.575 130.45C261.592 130.967 261.6 131.517 261.6 132.1C261.6 134.65 261.375 136.517 260.925 137.7C260.475 138.867 259.625 139.45 258.375 139.45ZM275.239 139.475C274.272 139.475 273.539 139.15 273.039 138.5C272.539 137.833 272.206 136.858 272.039 135.575C271.872 134.292 271.789 132.7 271.789 130.8C271.789 128.9 271.872 127.3 272.039 126C272.206 124.7 272.539 123.725 273.039 123.075C273.539 122.408 274.272 122.075 275.239 122.075C276.089 122.075 276.739 122.342 277.189 122.875C277.656 123.392 277.981 124.15 278.164 125.15C278.364 126.15 278.481 127.35 278.514 128.75C278.797 128.75 279.089 128.75 279.389 128.75C279.689 128.75 279.989 128.75 280.289 128.75C280.639 128.75 280.981 128.75 281.314 128.75C281.664 128.75 281.997 128.758 282.314 128.775C282.347 127.358 282.456 126.15 282.639 125.15C282.822 124.15 283.139 123.383 283.589 122.85C284.056 122.317 284.714 122.05 285.564 122.05C286.531 122.05 287.264 122.383 287.764 123.05C288.264 123.717 288.597 124.7 288.764 126C288.947 127.3 289.039 128.9 289.039 130.8C289.039 132.7 288.947 134.292 288.764 135.575C288.597 136.858 288.264 137.825 287.764 138.475C287.264 139.125 286.531 139.45 285.564 139.45C284.364 139.45 283.547 138.933 283.114 137.9C282.681 136.867 282.422 135.4 282.339 133.5C281.956 133.517 281.547 133.525 281.114 133.525C280.681 133.525 280.239 133.525 279.789 133.525C279.572 133.525 279.356 133.525 279.139 133.525C278.922 133.525 278.706 133.525 278.489 133.525C278.406 135.408 278.139 136.875 277.689 137.925C277.256 138.958 276.439 139.475 275.239 139.475ZM302.845 139.5C302.162 139.5 301.428 139.45 300.645 139.35C299.878 139.25 299.12 139.042 298.37 138.725C297.62 138.408 296.937 137.942 296.32 137.325C295.703 136.708 295.212 135.892 294.845 134.875C294.478 133.842 294.295 132.567 294.295 131.05C294.295 129.383 294.578 127.867 295.145 126.5C295.712 125.133 296.57 124.042 297.72 123.225C298.87 122.408 300.312 122 302.045 122C303.295 122 304.312 122.108 305.095 122.325C305.895 122.542 306.52 122.825 306.97 123.175C307.42 123.525 307.728 123.908 307.895 124.325C308.078 124.742 308.17 125.158 308.17 125.575C308.17 126.008 308.053 126.425 307.82 126.825C307.603 127.225 307.253 127.542 306.77 127.775C306.303 127.992 305.82 128.092 305.32 128.075C304.82 128.042 304.37 128.025 303.97 128.025C303.103 128.025 302.42 128.183 301.92 128.5C301.437 128.8 301.095 129.267 300.895 129.9C301.162 129.883 301.453 129.875 301.77 129.875C302.103 129.858 302.445 129.85 302.795 129.85C303.478 129.85 304.128 129.867 304.745 129.9C305.378 129.917 305.82 129.95 306.07 130C306.653 130.117 307.095 130.35 307.395 130.7C307.695 131.033 307.845 131.417 307.845 131.85C307.845 132.267 307.703 132.642 307.42 132.975C307.137 133.308 306.678 133.542 306.045 133.675C305.812 133.725 305.362 133.767 304.695 133.8C304.045 133.817 303.362 133.825 302.645 133.825C302.362 133.825 302.087 133.825 301.82 133.825C301.553 133.808 301.312 133.8 301.095 133.8C301.328 134.317 301.678 134.725 302.145 135.025C302.628 135.308 303.245 135.45 303.995 135.45C304.278 135.45 304.687 135.425 305.22 135.375C305.753 135.308 306.27 135.35 306.77 135.5C307.57 135.75 307.97 136.275 307.97 137.075C307.97 137.508 307.82 137.917 307.52 138.3C307.237 138.667 306.72 138.958 305.97 139.175C305.237 139.392 304.195 139.5 302.845 139.5Z" fill="#4C269A"/>
<path d="M222.136 183.396C218.843 183.396 215.844 182.737 213.14 181.42C210.436 180.068 208.287 178.04 206.692 175.336C205.097 172.632 204.3 169.252 204.3 165.196C204.3 162.804 204.716 160.533 205.548 158.384C206.38 156.2 207.541 154.259 209.032 152.56C210.557 150.861 212.343 149.527 214.388 148.556C216.433 147.585 218.687 147.1 221.148 147.1C224.233 147.1 226.937 147.672 229.26 148.816C231.583 149.925 233.385 151.451 234.668 153.392C235.985 155.333 236.644 157.5 236.644 159.892C236.644 160.828 236.453 161.729 236.072 162.596C235.725 163.428 235.171 164.121 234.408 164.676C233.68 165.231 232.727 165.508 231.548 165.508C230.439 165.508 229.555 165.335 228.896 164.988C228.272 164.641 227.735 164.225 227.284 163.74C226.868 163.22 226.435 162.7 225.984 162.18C225.533 161.66 224.979 161.227 224.32 160.88C223.661 160.533 222.76 160.36 221.616 160.36C220.541 160.36 219.553 160.637 218.652 161.192C217.751 161.747 217.023 162.509 216.468 163.48C215.948 164.416 215.688 165.491 215.688 166.704C215.688 168.507 216.156 170.084 217.092 171.436C218.063 172.788 219.432 173.464 221.2 173.464C222.587 173.464 223.679 173.256 224.476 172.84C225.308 172.424 226.001 171.956 226.556 171.436C227.145 170.881 227.769 170.396 228.428 169.98C229.121 169.564 230.005 169.356 231.08 169.356C232.605 169.356 233.749 169.859 234.512 170.864C235.309 171.869 235.639 173.1 235.5 174.556C235.361 176.047 234.703 177.468 233.524 178.82C232.38 180.172 230.82 181.281 228.844 182.148C226.903 182.98 224.667 183.396 222.136 183.396ZM253.694 183.5C250.331 183.5 247.402 182.807 244.906 181.42C242.444 180.033 240.815 177.849 240.018 174.868C239.671 173.551 239.446 171.956 239.342 170.084C239.272 168.177 239.238 166.167 239.238 164.052C239.238 161.972 239.324 159.927 239.498 157.916C239.706 155.905 240.087 154.085 240.642 152.456C241.196 150.827 242.028 149.527 243.138 148.556C244.282 147.585 245.79 147.1 247.662 147.1C249.118 147.1 250.331 147.447 251.301 148.14C252.307 148.833 253.07 149.752 253.59 150.896C254.11 152.04 254.37 153.305 254.37 154.692C254.37 157.292 254.127 160.083 253.642 163.064C253.156 166.045 252.671 168.853 252.186 171.488C253.295 171.141 254.56 170.881 255.982 170.708C257.438 170.5 258.894 170.431 260.35 170.5C261.84 170.535 263.21 170.777 264.458 171.228C265.706 171.644 266.711 172.303 267.474 173.204C268.236 174.071 268.618 175.215 268.618 176.636C268.618 178.335 268.184 179.669 267.317 180.64C266.451 181.576 265.29 182.252 263.834 182.668C262.378 183.049 260.766 183.292 258.998 183.396C257.23 183.465 255.462 183.5 253.694 183.5ZM278.326 183.604C275.934 183.604 274.045 182.443 272.658 180.12C271.306 177.797 270.509 174.747 270.266 170.968C269.989 166.288 270.491 162.163 271.774 158.592C273.091 154.987 275.067 152.179 277.702 150.168C280.337 148.157 283.474 147.152 287.114 147.152C290.789 147.152 293.926 148.157 296.526 150.168C299.161 152.179 301.119 154.969 302.402 158.54C303.719 162.111 304.222 166.253 303.91 170.968C303.667 174.851 302.853 177.919 301.466 180.172C300.114 182.425 298.242 183.552 295.85 183.552C294.498 183.552 293.458 183.309 292.73 182.824C292.002 182.304 291.482 181.663 291.17 180.9C290.893 180.103 290.754 179.305 290.754 178.508C290.754 177.676 290.806 176.965 290.91 176.376C289.801 176.411 288.501 176.445 287.01 176.48C285.519 176.48 284.271 176.445 283.266 176.376C283.37 176.965 283.422 177.676 283.422 178.508C283.422 179.305 283.266 180.103 282.954 180.9C282.677 181.663 282.174 182.304 281.446 182.824C280.718 183.344 279.678 183.604 278.326 183.604ZM282.902 167.12C285.641 167.016 288.379 167.016 291.118 167.12C291.291 165.907 291.274 164.745 291.066 163.636C290.858 162.527 290.425 161.625 289.766 160.932C289.107 160.239 288.171 159.892 286.958 159.892C285.745 159.892 284.809 160.239 284.15 160.932C283.526 161.625 283.11 162.527 282.902 163.636C282.729 164.711 282.729 165.872 282.902 167.12ZM319.234 183.5C316.46 183.5 314.034 182.737 311.954 181.212C309.908 179.687 308.331 177.537 307.222 174.764C306.112 171.956 305.558 168.628 305.558 164.78C305.558 163.22 305.748 161.521 306.13 159.684C306.546 157.812 307.152 156.044 307.95 154.38C308.747 152.681 309.718 151.295 310.862 150.22C312.006 149.145 313.323 148.608 314.814 148.608C316.374 148.608 317.639 149.163 318.61 150.272C319.615 151.381 320.118 152.751 320.118 154.38C320.118 155.212 319.892 156.287 319.442 157.604C318.991 158.887 318.54 160.273 318.09 161.764C317.639 163.22 317.414 164.641 317.414 166.028C317.414 167.657 317.656 168.801 318.142 169.46C318.627 170.084 319.164 170.396 319.754 170.396C320.62 170.396 321.227 169.963 321.574 169.096C321.955 168.229 322.146 166.583 322.146 164.156C322.146 162.873 322.128 161.504 322.094 160.048C322.094 158.592 322.215 157.223 322.458 155.94C322.735 154.623 323.255 153.548 324.018 152.716C324.815 151.884 325.994 151.468 327.554 151.468C329.114 151.468 330.292 151.867 331.09 152.664C331.922 153.461 332.476 154.501 332.754 155.784C333.031 157.032 333.17 158.367 333.17 159.788C333.204 161.209 333.222 162.561 333.222 163.844C333.222 166.444 333.447 168.264 333.898 169.304C334.348 170.309 335.042 170.812 335.978 170.812C336.671 170.812 337.208 170.431 337.59 169.668C337.971 168.871 338.127 167.657 338.058 166.028C337.988 164.641 337.728 163.272 337.278 161.92C336.827 160.533 336.376 159.199 335.926 157.916C335.51 156.633 335.302 155.455 335.302 154.38C335.302 152.681 335.839 151.312 336.914 150.272C337.988 149.232 339.219 148.712 340.606 148.712C342.235 148.712 343.639 149.249 344.818 150.324C345.996 151.399 346.967 152.768 347.73 154.432C348.492 156.096 349.047 157.847 349.394 159.684C349.775 161.521 349.966 163.22 349.966 164.78C349.966 168.628 349.411 171.956 348.302 174.764C347.192 177.537 345.615 179.687 343.57 181.212C341.524 182.703 339.098 183.448 336.29 183.448C334.799 183.448 333.326 183.119 331.87 182.46C330.414 181.767 329.044 180.709 327.762 179.288C326.479 180.709 325.092 181.767 323.602 182.46C322.146 183.153 320.69 183.5 319.234 183.5Z" fill="#4C269A"/>
<path d="M134.998 114.009C183.062 112.926 186.901 164.279 163.811 184.319C148.766 197.378 121.281 190.882 114.565 186.061C108.342 196.17 65.3526 198 65.3526 169.773C54.1199 164.537 45.4632 154.669 56.063 132.924C45.3384 125.04 41.2621 114.866 48.382 103.312C65.7354 75.1511 86.934 115.093 134.998 114.009Z" fill="#FEFFFF"/>
<path d="M132.128 146.496C122.877 144.917 104.387 146.786 104.439 166.892C104.461 175.648 107.849 181.239 114.565 186.061M85.2867 142.358C75.3119 142.794 63.5639 139.712 56.063 132.924M83.8349 171.925C77.3447 172.145 72.2526 172.988 65.3526 169.773M56.063 132.924C45.3384 125.04 41.2621 114.866 48.382 103.312C65.7354 75.1511 86.934 115.093 134.998 114.009C183.062 112.926 186.901 164.279 163.811 184.319C148.766 197.378 121.281 190.882 114.565 186.061M56.063 132.924C45.4632 154.669 54.1199 164.537 65.3526 169.773M114.565 186.061C108.342 196.17 65.3526 198 65.3526 169.773" stroke="#8B2F32" stroke-width="5" stroke-linecap="round"/>
<path d="M110.495 155C116.095 189.8 151.495 182 169.495 173C167.828 177.333 162.995 184.5 152.495 188C140.495 192 115.416 188 110.495 179.5C104.995 170 106.495 160 110.495 155Z" fill="#C1C1C1" fill-opacity="0.44"/>
<rect x="158.912" y="705.5" width="16" height="72" rx="8" transform="rotate(45 158.912 705.5)" fill="white" fill-opacity="0.41"/>
<rect x="222.314" y="814.726" width="16" height="72" rx="8" transform="rotate(-135 222.314 814.726)" fill="white" fill-opacity="0.41"/>
<rect x="127.936" y="705.5" width="16" height="35.2641" rx="8" transform="rotate(45 127.936 705.5)" fill="white" fill-opacity="0.41"/>
<rect x="253.29" y="814.726" width="16" height="35.2641" rx="8" transform="rotate(-135 253.29 814.726)" fill="white" fill-opacity="0.41"/>
<path d="M132.915 621.703C137.458 620.937 142.444 622.348 145.96 625.765C148.234 624.851 150.515 624.419 152.751 624.516C156.44 624.676 159.581 626.263 161.842 628.688C166.231 633.395 167.052 640.833 163.972 646.994C161.586 651.766 157.09 655.6 152.94 658.215C148.827 660.807 144.089 662.803 140.497 663.162L139.337 663.279L138.244 662.869C132.919 660.872 128.658 656.605 125.784 652.099C122.912 647.596 121 642.192 121 637.258C121 633.046 122.182 629.394 124.444 626.606C126.699 623.827 129.763 622.236 132.915 621.703Z" fill="white"/>
<path d="M159.5 644.758C155.9 651.958 145 657.688 140 658.188C132 655.188 126 644.758 126 637.258C126 624.187 140.495 623.688 144.495 632.188C156.495 624.188 164 635.758 159.5 644.758Z" fill="#70CAEB" stroke="#8B2F32" stroke-width="3"/>
<path d="M135.588 632.688C136.809 632.644 137.305 634.849 137.317 635.809C137.335 637.238 136.464 638.895 135.372 639.8C134.84 640.241 134.449 640.308 133.802 640.316C133.132 640.268 132.494 639.994 132.265 639.318C131.298 636.462 133.05 633.787 135.588 632.688Z" fill="white"/>
<path d="M134.113 643.436C136.108 643.262 136.394 644.692 135.518 646.342C135.333 646.691 134.966 646.729 134.593 646.788C134.447 646.796 134.299 646.802 134.157 646.804C132.652 646.826 132.02 644.68 133.223 643.803C133.554 643.562 133.723 643.514 134.113 643.436Z" fill="white"/>
<path d="M187.878 568.187C190.254 566.427 193.518 565.784 196.524 566.717C197.559 565.532 198.739 564.622 200.047 564.026C202.204 563.045 204.463 563.04 206.462 563.769C210.343 565.186 212.977 569.204 213.006 573.626C213.029 577.05 211.572 580.552 209.958 583.256C208.358 585.935 206.227 588.456 204.276 589.706L203.646 590.11L202.902 590.194C199.273 590.6 195.594 589.398 192.639 587.655C189.685 585.914 187.019 583.377 185.584 580.554C184.359 578.144 183.973 575.71 184.456 573.456C184.938 571.21 186.228 569.409 187.878 568.187Z" fill="white"/>
<path d="M209.797 573.647C209.831 578.814 205.26 585.264 202.544 587.004C197.094 587.614 190.627 583.392 188.445 579.1C184.643 571.62 192.792 567.118 197.554 570.818C202.093 562.75 209.754 567.188 209.797 573.647Z" fill="#EB70C2" stroke="#8B2F32" stroke-width="3"/>
<path d="M192.602 573.695C193.288 573.315 194.214 574.432 194.5 574.978C194.926 575.791 194.909 576.992 194.548 577.828C194.372 578.235 194.167 578.387 193.799 578.58C193.402 578.747 192.957 578.776 192.63 578.456C191.245 577.103 191.47 575.063 192.602 573.695Z" fill="white"/>
<path d="M194.885 580.275C195.976 579.595 196.556 580.33 196.534 581.529C196.53 581.783 196.331 581.911 196.135 582.054C196.054 582.1 195.971 582.147 195.89 582.189C195.035 582.64 194.049 581.595 194.483 580.744C194.602 580.51 194.684 580.433 194.885 580.275Z" fill="white"/>
<path d="M429.997 114.009C381.933 112.926 378.094 164.279 401.184 184.319C416.228 197.378 443.714 190.882 450.43 186.061C456.653 196.17 501.05 206.39 499.642 169.773C510.875 164.537 519.531 154.669 508.932 132.924C519.656 125.04 523.733 114.866 516.613 103.312C499.259 75.1511 478.061 115.093 429.997 114.009Z" fill="#FEFFFF"/>
<path d="M432.867 146.496C442.118 144.917 460.607 146.786 460.556 166.892C460.534 175.648 457.146 181.239 450.43 186.061M479.708 142.358C489.683 142.794 501.431 139.712 508.932 132.924M481.16 171.925C487.65 172.145 492.742 172.988 499.642 169.773M508.932 132.924C519.656 125.04 523.733 114.866 516.613 103.312C499.259 75.1511 478.061 115.093 429.997 114.009C381.933 112.926 378.094 164.279 401.184 184.319C416.228 197.378 443.714 190.882 450.43 186.061M508.932 132.924C519.531 154.669 510.875 164.537 499.642 169.773M450.43 186.061C456.653 196.17 501.05 206.39 499.642 169.773" stroke="#8B2F32" stroke-width="5" stroke-linecap="round"/>
<path d="M454.5 155C448.9 189.8 413.5 182 395.5 173C397.167 177.333 402 184.5 412.5 188C424.5 192 449.579 188 454.5 179.5C460 170 458.5 160 454.5 155Z" fill="#C1C1C1" fill-opacity="0.44"/>
<path d="M255.863 56.6497C255.863 50.3544 263.012 46.7242 268.095 50.4386L274.172 54.8799C275.261 55.6755 276.739 55.6755 277.828 54.8799L283.906 50.4386C288.988 46.7242 296.137 50.3544 296.137 56.6497C296.137 61.7633 293.825 66.6027 289.847 69.8158L276 81L262.153 69.8158C258.175 66.6027 255.863 61.7633 255.863 56.6497Z" fill="#D2595F"/>
<defs>
<linearGradient id="paint0_linear_221_1539" x1="277" y1="48.5" x2="277" y2="102.5" gradientUnits="userSpaceOnUse">
<stop stop-color="#FBE59B"/>
<stop offset="1" stop-color="#DA965F"/>
</linearGradient>
<linearGradient id="paint1_linear_221_1539" x1="181.5" y1="66.5" x2="198.252" y2="121.875" gradientUnits="userSpaceOnUse">
<stop stop-color="#C8EDF4"/>
<stop offset="1" stop-color="#50CEE6"/>
</linearGradient>
<linearGradient id="paint2_linear_221_1539" x1="132.5" y1="89.5" x2="152.5" y2="132" gradientUnits="userSpaceOnUse">
<stop stop-color="#EDFC9B"/>
<stop offset="1" stop-color="#E6F72F"/>
</linearGradient>
<linearGradient id="paint3_linear_221_1539" x1="359" y1="73.5" x2="349.321" y2="121.875" gradientUnits="userSpaceOnUse">
<stop stop-color="#C8EDF4"/>
<stop offset="1" stop-color="#50CEE6"/>
</linearGradient>
<linearGradient id="paint4_linear_221_1539" x1="415.073" y1="89.5" x2="395.073" y2="132" gradientUnits="userSpaceOnUse">
<stop stop-color="#EDFC9B"/>
<stop offset="1" stop-color="#E6F72F"/>
</linearGradient>
<linearGradient id="paint5_linear_221_1539" x1="278" y1="154.5" x2="278" y2="881.5" gradientUnits="userSpaceOnUse">
<stop stop-color="#F9AEC5"/>
<stop offset="0.768811" stop-color="#F9A1BC"/>
<stop offset="1" stop-color="#FF78A1"/>
</linearGradient>
<linearGradient id="paint6_linear_221_1539" x1="278" y1="297.5" x2="278" y2="573.5" gradientUnits="userSpaceOnUse">
<stop stop-color="#FF82A6"/>
<stop offset="1" stop-color="#E57394"/>
</linearGradient>
<linearGradient id="paint7_linear_221_1539" x1="357" y1="574.5" x2="357" y2="663" gradientUnits="userSpaceOnUse">
<stop stop-color="#FFDDD1"/>
<stop offset="1" stop-color="#F89C7B"/>
</linearGradient>
<linearGradient id="paint8_linear_221_1539" x1="27.5" y1="28.5" x2="-3" y2="11.5" gradientUnits="userSpaceOnUse">
<stop stop-color="#FCF49A"/>
<stop offset="1" stop-color="#FCB69A"/>
</linearGradient>
<linearGradient id="paint9_linear_221_1539" x1="37.1148" y1="25.5693" x2="-4.54386" y2="4.38432" gradientUnits="userSpaceOnUse">
<stop stop-color="#FCF49A"/>
<stop offset="1" stop-color="#FCB69A"/>
</linearGradient>
<linearGradient id="paint10_linear_221_1539" x1="544.596" y1="429.863" x2="500.014" y2="420.119" gradientUnits="userSpaceOnUse">
<stop stop-color="#FCF49A"/>
<stop offset="1" stop-color="#FCB69A"/>
</linearGradient>
<linearGradient id="paint11_linear_221_1539" x1="548" y1="508.5" x2="500" y2="499" gradientUnits="userSpaceOnUse">
<stop stop-color="#FCF49A"/>
<stop offset="1" stop-color="#FCB69A"/>
</linearGradient>
<linearGradient id="paint12_linear_221_1539" x1="33.6758" y1="252.5" x2="-1.32422" y2="221.5" gradientUnits="userSpaceOnUse">
<stop stop-color="#FCF49A"/>
<stop offset="1" stop-color="#FCB69A"/>
</linearGradient>
<linearGradient id="paint13_linear_221_1539" x1="41.7797" y1="330.291" x2="0.339621" y2="318.292" gradientUnits="userSpaceOnUse">
<stop stop-color="#FCF49A"/>
<stop offset="1" stop-color="#FCB69A"/>
</linearGradient>
<linearGradient id="paint14_linear_221_1539" x1="21.5" y1="43" x2="-5.2354" y2="26.3029" gradientUnits="userSpaceOnUse">
<stop stop-color="#FCF49A"/>
<stop offset="1" stop-color="#FCB69A"/>
</linearGradient>
<linearGradient id="paint15_linear_221_1539" x1="31.0879" y1="32" x2="-2.41211" y2="14" gradientUnits="userSpaceOnUse">
<stop stop-color="#FCF49A"/>
<stop offset="1" stop-color="#FCB69A"/>
</linearGradient>
</defs>
</svg>
